<?xml version="1.0" standalone="no"?>
<!DOCTYPE svg PUBLIC "-//W3C//DTD SVG 20010904//EN"
 "http://www.w3.org/TR/2001/REC-SVG-20010904/DTD/svg10.dtd">
<svg version="1.0" xmlns="http://www.w3.org/2000/svg"
 width="700.000000pt" height="700.000000pt" viewBox="0 0 700.000000 700.000000"
 preserveAspectRatio="xMidYMid meet">
<metadata>
Created by potrace 1.14, written by Peter Selinger 2001-2017
</metadata>
<g transform="translate(0.000000,700.000000) scale(0.100000,-0.100000)"
fill="#000000" stroke="none">
<path d="M3335 6924 c-507 -31 -944 -147 -1375 -365 -959 -484 -1627 -1372
-1829 -2429 -74 -390 -74 -870 0 -1260 245 -1281 1178 -2305 2430 -2665 310
-90 591 -128 939 -128 256 0 421 14 630 54 1394 266 2473 1345 2739 2739 74
390 74 870 0 1260 -180 944 -739 1764 -1548 2272 -432 272 -925 445 -1431 502
-137 16 -445 27 -555 20z m2 -235 c145 -51 347 -146 472 -224 315 -195 611
-495 826 -835 90 -143 234 -437 290 -595 141 -393 233 -849 253 -1261 l7 -139
65 -3 66 -3 -4 40 c-5 49 23 81 69 81 35 0 391 -161 427 -193 25 -23 29 -72 8
-99 -14 -19 -411 -208 -437 -208 -9 0 -28 9 -43 21 -21 17 -26 29 -26 65 l0
45 -62 -3 -63 -3 -2 -65 c-18 -505 -141 -1073 -325 -1505 -217 -509 -560 -937
-973 -1212 -173 -116 -383 -220 -571 -282 -150 -50 -177 -43 -213 60 -10 30
-186 340 -392 689 -205 349 -576 981 -825 1405 l-452 770 -104 5 c-111 6 -133
12 -148 41 -19 34 -10 67 40 140 27 41 50 77 50 82 0 4 -23 41 -50 82 -55 82
-62 118 -30 153 19 20 31 22 126 22 l105 0 35 58 c210 341 1623 2763 1641
2812 27 73 52 100 93 100 16 0 82 -18 147 -41z"/>
<path d="M3217 6483 c-3 -5 -195 -332 -427 -728 -467 -796 -437 -744 -422
-730 7 8 771 1057 979 1347 l34 47 -70 36 c-73 36 -87 40 -94 28z"/>
<path d="M3413 6177 c-60 -84 -267 -368 -458 -632 -192 -264 -366 -505 -387
-535 l-39 -55 42 45 c23 25 180 203 349 395 169 193 404 460 523 595 l215 244
-52 39 c-28 21 -58 42 -67 47 -12 7 -38 -22 -126 -143z"/>
<path d="M3717 6048 c-74 -83 -1019 -1160 -1051 -1198 -32 -38 23 11 229 206
99 94 261 246 360 339 401 377 645 609 645 614 0 9 -104 111 -112 111 -4 0
-36 -33 -71 -72z"/>
<path d="M3789 5668 c-210 -199 -789 -744 -959 -904 -41 -38 -163 -153 -270
-255 -107 -101 -331 -312 -498 -468 -197 -186 -301 -290 -297 -299 3 -8 22
-36 43 -63 l37 -48 1468 -1 1468 0 -6 73 c-27 308 -64 543 -125 792 -111 450
-296 894 -500 1197 -50 73 -100 145 -113 161 l-23 27 -225 -212z"/>
<path d="M1802 3318 l-49 -62 91 -85 c50 -47 174 -165 276 -261 102 -97 262
-247 355 -335 303 -284 1023 -963 1282 -1207 138 -131 254 -238 256 -238 7 0
123 161 174 240 185 291 363 732 463 1143 64 264 113 585 122 792 l3 70 -1462
3 -1462 2 -49 -62z"/>
<path d="M2665 2160 c8 -14 292 -338 760 -869 105 -119 228 -260 275 -314 l84
-97 58 57 c32 32 57 61 56 64 -2 4 -174 168 -383 365 -209 196 -488 459 -620
583 -131 124 -235 219 -230 211z"/>
<path d="M2537 2040 c60 -86 969 -1338 978 -1349 11 -11 23 -6 74 30 34 24 61
47 61 51 0 8 -92 114 -650 748 -119 135 -267 304 -329 375 -113 130 -156 176
-134 145z"/>
<path d="M2362 1985 c7 -13 860 -1469 864 -1473 5 -7 149 73 147 81 -1 9 -989
1375 -1006 1392 -7 7 -8 7 -5 0z"/>
</g>
</svg>
