<?xml version="1.0" standalone="no"?>
<!DOCTYPE svg PUBLIC "-//W3C//DTD SVG 1.1//EN" "http://www.w3.org/Graphics/SVG/1.1/DTD/svg11.dtd" >
<svg xmlns="http://www.w3.org/2000/svg" xmlns:xlink="http://www.w3.org/1999/xlink" version="1.1">
<metadata>
Created by FontForge 20201107 at Wed Nov  9 13:42:56 2022
 By Unknown
This font has been released under a no rights reserved Creative Commons Zero license.  Please do not ask permission to do anything with these fonts. Whatever you want to do with this font, the answer will be yes. Please read about the CC0 Public Domain license before contacting me. https://creativecommons.org/publicdomain/zero/1.0/ To the extent possible under law, Raymond Larabie has waived all copyright and related or neighboring rights to this font. This work is published from Japan.
</metadata>
<defs>
<font id="DendriticVoltage-Regular" horiz-adv-x="588" >
  <font-face 
    font-family="Dendritic Voltage"
    font-weight="400"
    font-stretch="normal"
    units-per-em="1000"
    panose-1="1 0 4 0 0 0 0 0 0 0"
    ascent="776"
    descent="-224"
    x-height="694"
    cap-height="694"
    bbox="-146 -224 2084 976"
    underline-thickness="20"
    underline-position="-143"
    stemh="174"
    stemv="173"
    unicode-range="U+0017-E067"
  />
<missing-glyph horiz-adv-x="891" 
d="M772 -172h-655c-56 0 -86 25 -86 75v812c0 50 30 76 86 76h655c59 0 88 -26 88 -76v-812c0 -50 -29 -75 -88 -75zM723 302l25 92c7 24 10 47 10 67c0 79 -50 141 -145 168l-368 99l-50 -185l323 -87c24 -7 35 -24 35 -39c0 -30 -21 -55 -48 -55c-3 0 -7 1 -11 2l-232 62
l-50 -185l278 -74c17 -5 33 -10 50 -10c90 0 157 41 183 145zM348 7c2 8 3 16 3 25c0 50 -41 95 -96 95c-51 0 -96 -40 -96 -96c0 -49 40 -95 97 -95c42 0 81 28 92 71z" />
    <glyph glyph-name="C_H" unicode="CH" horiz-adv-x="1177" 
d="M1143 260h-347v-260h-174v434c0 83 -8 86 -60 86h-295c-49 0 -60 -11 -60 -61v-252c0 -29 5 -34 60 -34h287v-173h-347c-111 0 -173 62 -173 173v347c0 111 63 174 173 174h415c111 0 174 -63 174 -174v-86h173v260h174v-434zM1143 0h-174v173h174v-173z" />
    <glyph glyph-name="C_S" unicode="CS" horiz-adv-x="1035" 
d="M838 0h-631c-111 0 -173 62 -173 173v347c0 111 63 174 173 174h245v-174h-185c-49 0 -60 -11 -60 -61v-252c0 -29 5 -34 60 -34h528c27 0 42 14 42 41c0 25 -18 46 -42 46h-17v174h60c110 0 173 -64 173 -174v-87c0 -111 -62 -173 -173 -173zM1011 520h-303
c-27 0 -42 -13 -42 -40c0 -25 18 -46 42 -46h18v-174h-62c-109 0 -173 63 -173 174v86c0 112 62 174 173 174h347v-174z" />
    <glyph glyph-name="C_U" unicode="CU" horiz-adv-x="1111" 
d="M904 0h-173c-110 0 -174 63 -174 173v314c0 25 -5 32 -46 33h-244c-49 0 -60 -11 -60 -61v-252c0 -29 5 -34 60 -34h203v-173h-263c-111 0 -173 62 -173 173v347c0 111 63 174 173 174h350c111 0 174 -62 174 -174v-286c0 -49 11 -61 61 -61h52c49 0 60 12 60 61v460h174
v-521c0 -110 -64 -173 -174 -173z" />
    <glyph glyph-name="C_W" unicode="CW" horiz-adv-x="1263" 
d="M1056 0h-347c-109 0 -173 63 -173 173v314c0 28 -4 33 -38 33h-231c-49 0 -60 -11 -60 -61v-252c0 -29 5 -34 60 -34h181v-173h-241c-111 0 -173 62 -173 173v347c0 111 63 174 173 174h329c113 0 173 -62 173 -174v-290c0 -45 12 -57 53 -57h34v521h173v-521h37
c41 0 50 14 50 57v464h174v-521c0 -110 -64 -173 -174 -173z" />
    <glyph glyph-name="C_Y" unicode="CY" horiz-adv-x="1072" 
d="M878 260h-174c-111 0 -173 62 -173 174v25c0 50 -12 61 -61 61h-203c-49 0 -60 -11 -60 -61v-252c0 -29 5 -34 60 -34h246v-173h-306c-111 0 -173 62 -173 173v347c0 111 63 174 173 174h324c110 0 173 -63 173 -174v-26c0 -55 4 -60 34 -60h79c49 0 61 11 61 60v200h173
v-260c0 -110 -63 -174 -173 -174zM878 0h-174v173h174v-173z" />
    <glyph glyph-name="E_B" unicode="EB" horiz-adv-x="1176" 
d="M968 0h-761c-111 0 -173 62 -173 173v87c0 36 19 71 51 86c-27 16 -47 48 -47 88v86c0 111 59 174 169 174h347v-174h-304c-24 0 -42 -18 -42 -50c0 -27 14 -44 42 -44h302v-158h-302c-24 0 -42 -14 -42 -50c0 -27 14 -45 42 -45h676c27 0 41 18 41 45
c0 36 -17 50 -41 50h-303v158h303c27 0 41 17 41 44c0 32 -17 50 -41 50h-305v174h347c111 0 170 -63 170 -174v-86c0 -40 -21 -72 -47 -88c31 -15 51 -50 51 -86v-87c0 -111 -62 -173 -174 -173z" />
    <glyph glyph-name="E_D" unicode="ED" horiz-adv-x="1172" 
d="M966 0h-759c-111 0 -173 62 -173 173v87c0 36 19 71 51 86c-27 16 -47 48 -47 88v86c0 111 59 174 169 174h347v-174h-304c-24 0 -42 -18 -42 -50c0 -27 14 -44 42 -44h302v-158h-302c-24 0 -42 -14 -42 -50c0 -27 14 -45 42 -45h656c56 0 61 6 61 34v252
c-1 50 -12 61 -61 61h-113v-260h-174v434h347c111 0 174 -63 174 -174v-347c0 -111 -62 -173 -174 -173z" />
    <glyph glyph-name="E_M" unicode="EM" horiz-adv-x="1355" 
d="M1321 0h-173v464c0 43 -9 56 -50 56h-37v-520h-173v520h-34c-41 0 -53 -11 -53 -56v-291c0 -111 -60 -173 -173 -173h-421c-111 0 -173 62 -173 173v87c0 36 19 71 51 86c-27 16 -47 48 -47 88v86c0 111 59 174 169 174h347v-174h-304c-24 0 -42 -18 -42 -50
c0 -27 14 -44 42 -44h302v-158h-302c-24 0 -42 -14 -42 -50c0 -27 14 -45 42 -45h340c33 0 38 6 38 34v313c0 111 64 174 173 174h347c110 0 173 -63 173 -174v-520z" />
    <glyph glyph-name="E_M_M" unicode="EMM" horiz-adv-x="2117" 
d="M2084 0h-174v464c0 43 -9 56 -50 56h-37v-520h-173v520h-34c-41 0 -53 -11 -53 -56v-188c0 -112 -60 -174 -173 -174h-68c-111 0 -173 62 -173 174v188c0 43 -9 56 -50 56h-37v-520h-174v520h-34c-41 0 -53 -11 -53 -56v-291c0 -111 -60 -173 -173 -173h-421
c-111 0 -173 62 -173 173v87c0 36 19 71 51 86c-27 16 -47 48 -47 88v86c0 111 59 174 169 174h347v-174h-304c-24 0 -42 -18 -42 -50c0 -27 14 -44 42 -44h302v-158h-302c-24 0 -42 -14 -42 -50c0 -27 14 -45 42 -45h340c33 0 38 6 38 34v313c0 111 64 174 173 174h348
c110 0 173 -63 173 -174v-211c0 -25 5 -33 24 -33h19c21 0 25 7 25 33v211c0 111 64 174 173 174h347c110 0 174 -63 174 -174v-520z" />
    <glyph glyph-name="E_M_P" unicode="EMP" horiz-adv-x="1920" 
d="M1381 0h-68c-111 0 -173 62 -173 173v291c0 43 -9 56 -50 56h-37v-520h-173v520h-34c-41 0 -53 -11 -53 -56v-291c0 -111 -60 -173 -174 -173h-412c-111 0 -173 62 -173 173v87c0 36 19 71 51 86c-27 16 -47 48 -47 88v86c0 111 59 174 169 174h347v-174h-304
c-24 0 -42 -18 -42 -50c0 -27 14 -44 42 -44h302v-158h-302c-24 0 -42 -14 -42 -50c0 -27 14 -45 42 -45h332c33 0 37 6 37 34v313c0 111 65 174 174 174h347c110 0 173 -63 173 -174v-318c0 -19 4 -29 25 -29h21c16 0 22 10 22 29v242c0 152 118 260 260 260
c140 0 260 -108 260 -260s-117 -260 -260 -260c-30 0 -59 5 -87 15v-26c0 -111 -62 -173 -173 -173zM1728 444c0 54 -39 87 -87 87c-49 0 -87 -33 -87 -87s38 -87 87 -87c48 0 87 33 87 87z" />
    <glyph glyph-name="E_M_S" unicode="EMS" horiz-adv-x="1924" 
d="M1728 0h-415c-111 0 -173 62 -173 173v291c0 43 -9 56 -50 56h-37v-520h-173v520h-34c-41 0 -53 -11 -53 -56v-291c0 -111 -60 -173 -174 -173h-412c-111 0 -173 62 -173 173v87c0 36 19 71 51 86c-27 16 -47 48 -47 88v86c0 111 59 174 169 174h347v-174h-304
c-24 0 -42 -18 -42 -50c0 -27 14 -44 42 -44h302v-158h-302c-24 0 -42 -14 -42 -50c0 -27 14 -45 42 -45h332c33 0 37 6 37 34v313c0 111 65 174 174 174h347c110 0 173 -63 173 -174v-313c0 -28 5 -34 32 -34h340c27 0 42 14 42 41c0 25 -18 46 -42 46h-18v174h61
c110 0 173 -64 173 -174v-87c0 -111 -62 -173 -173 -173zM1901 520h-303c-28 0 -42 -13 -42 -40c0 -25 17 -46 42 -46h17v-174h-61c-109 0 -173 63 -173 174v86c0 112 62 174 173 174h347v-174z" />
    <glyph glyph-name="E_N" unicode="EN" horiz-adv-x="1171" 
d="M1138 0h-174v459c0 45 -14 61 -57 61h-121v-520h-174v520h-362c-24 0 -42 -18 -42 -50c0 -27 14 -44 42 -44h292v-158h-292c-24 0 -42 -14 -42 -50c0 -27 14 -45 42 -45h294v-173h-337c-111 0 -173 62 -173 173v87c0 36 19 71 51 86c-27 16 -47 48 -47 88v86
c0 111 59 174 169 174h757c110 0 174 -63 174 -174v-520z" />
    <glyph glyph-name="E_N_D" unicode="END" horiz-adv-x="1759" 
d="M1552 0h-414c-111 0 -174 62 -174 173v286c0 45 -14 61 -57 61h-121v-520h-174v520h-362c-24 0 -42 -18 -42 -50c0 -27 14 -44 42 -44h292v-158h-292c-24 0 -42 -14 -42 -50c0 -27 14 -45 42 -45h294v-173h-337c-111 0 -173 62 -173 173v87c0 36 19 71 51 86
c-27 16 -47 48 -47 88v86c0 111 59 174 169 174h757c110 0 174 -63 174 -174v-313c0 -28 5 -34 61 -34h305c44 0 48 8 48 34v252c0 50 -11 61 -60 61h-113v-260h-174v434h347c110 0 173 -63 173 -174v-347c0 -111 -62 -173 -173 -173z" />
    <glyph glyph-name="E_P" unicode="EP" horiz-adv-x="1170" 
d="M631 0h-424c-111 0 -173 62 -173 173v87c0 36 19 71 51 86c-27 16 -47 48 -47 88v86c0 111 59 174 169 174h347v-174h-304c-24 0 -42 -18 -42 -50c0 -27 14 -44 42 -44h302v-158h-302c-24 0 -42 -14 -42 -50c0 -27 14 -45 42 -45h319c57 0 62 16 62 44v227
c0 152 118 260 260 260c140 0 260 -108 260 -260s-117 -260 -260 -260c-30 0 -59 5 -87 15v-26c0 -111 -62 -173 -173 -173zM978 444c0 54 -39 87 -87 87c-49 0 -87 -33 -87 -87s38 -87 87 -87c48 0 87 33 87 87z" />
    <glyph glyph-name="F_H" unicode="FH" horiz-adv-x="1177" 
d="M1143 260h-347v-260h-174v434c0 83 -8 86 -60 86h-321c-28 0 -42 -13 -42 -40c0 -25 17 -46 42 -46h304v-174h-174v-260h-173v260c-110 0 -174 64 -174 174v86c0 112 63 174 174 174h424c111 0 174 -63 174 -174v-86h173v260h174v-434zM1143 0h-174v173h174v-173z" />
    <glyph glyph-name="F_N" unicode="FN" horiz-adv-x="1171" 
d="M1138 0h-174v459c0 45 -14 61 -57 61h-121v-520h-174v520h-371c-28 0 -42 -13 -42 -40c0 -25 17 -46 42 -46h304v-174h-174v-260h-173v260c-110 0 -174 64 -174 174v86c0 112 63 174 174 174h766c110 0 174 -63 174 -174v-520z" />
    <glyph glyph-name="F_U" unicode="FU" horiz-adv-x="1148" 
d="M941 0h-174c-109 0 -173 63 -173 173v314c0 26 -6 32 -49 33h-304c-28 0 -42 -13 -42 -40c0 -25 17 -46 42 -46h304v-174h-174v-260h-173v260c-110 0 -174 64 -174 174v86c0 112 63 174 174 174h396c111 0 173 -62 173 -174v-286c0 -49 12 -61 62 -61h52
c49 0 60 12 60 61v460h173v-521c0 -110 -63 -173 -173 -173z" />
    <glyph glyph-name="F_Y" unicode="FY" horiz-adv-x="1139" 
d="M944 260h-174c-111 0 -173 62 -173 174v25c0 47 -10 59 -52 61h-304c-28 0 -42 -13 -42 -40c0 -25 17 -46 42 -46h304v-174h-174v-260h-173v260c-110 0 -174 64 -174 174v86c0 112 63 174 174 174h399c110 0 173 -63 173 -174v-26c0 -55 4 -60 34 -60h80
c49 0 60 11 60 60v200h173v-260c0 -110 -63 -174 -173 -174zM944 0h-174v173h174v-173z" />
    <glyph glyph-name="G_B" unicode="GB" horiz-adv-x="1176" 
d="M968 0h-347v173h305c27 0 41 18 41 45c0 36 -17 50 -41 50h-303v158h303c27 0 41 17 41 44c0 32 -17 50 -41 50h-659c-49 0 -60 -11 -61 -61v-252c0 -28 5 -34 61 -34h114v261h173v-434h-347c-113 0 -173 62 -173 173v347c0 111 63 174 173 174h761
c111 0 170 -63 170 -174v-86c0 -40 -21 -72 -47 -88c31 -15 51 -50 51 -86v-87c0 -111 -62 -173 -174 -173z" />
    <glyph glyph-name="G_H" unicode="GH" horiz-adv-x="1176" 
d="M1142 260h-347v-260h-174v434c0 83 -8 86 -60 86h-294c-49 0 -60 -11 -61 -61v-252c0 -28 5 -34 61 -34h114v261h173v-434h-347c-113 0 -173 62 -173 173v347c0 111 63 174 173 174h414c111 0 174 -63 174 -174v-86h173v260h174v-434zM1142 0h-174v173h174v-173z" />
    <glyph glyph-name="G_N" unicode="GN" horiz-adv-x="1181" 
d="M1147 0h-174v459c0 45 -14 61 -57 61h-121v-520h-174v520h-354c-49 0 -60 -11 -61 -61v-252c0 -28 5 -34 61 -34h114v261h173v-434h-347c-113 0 -173 62 -173 173v347c0 111 63 174 173 174h766c111 0 174 -63 174 -174v-520z" />
    <glyph glyph-name="G_U" unicode="GU" horiz-adv-x="1165" 
d="M958 0h-173c-109 0 -174 63 -174 173v314c0 28 -6 33 -60 33h-284c-49 0 -60 -11 -61 -61v-252c0 -28 5 -34 61 -34h114v261h173v-434h-347c-113 0 -173 62 -173 173v347c0 111 63 174 173 174h404c111 0 174 -62 174 -174v-286c0 -49 11 -61 61 -61h52c49 0 60 12 60 61
v460h174v-521c0 -110 -64 -173 -174 -173z" />
    <glyph glyph-name="G_W" unicode="GW" horiz-adv-x="1349" 
d="M1142 0h-347c-109 0 -174 63 -174 173v314c0 28 -4 33 -37 33h-317c-49 0 -60 -11 -61 -61v-252c0 -28 5 -34 61 -34h114v261h173v-434h-347c-113 0 -173 62 -173 173v347c0 111 63 174 173 174h414c114 0 174 -62 174 -174v-290c0 -45 12 -57 53 -57h34v521h173v-521h37
c41 0 50 14 50 57v464h173v-521c0 -110 -63 -173 -173 -173z" />
    <glyph glyph-name="G_Y" unicode="GY" horiz-adv-x="1172" 
d="M978 260h-174c-111 0 -173 62 -173 174v25c0 50 -12 61 -61 61h-303c-49 0 -60 -11 -61 -61v-252c0 -28 5 -34 61 -34h114v261h173v-434h-347c-113 0 -173 62 -173 173v347c0 111 63 174 173 174h424c110 0 173 -63 173 -174v-26c0 -55 4 -60 34 -60h79c49 0 61 11 61 60
v200h173v-260c0 -110 -63 -174 -173 -174zM978 0h-174v173h174v-173z" />
    <glyph glyph-name="L_L" unicode="LL" horiz-adv-x="651" 
d="M630 260h-347v434h173v-260h174v-174zM630 0h-608v694h174v-521h434v-173z" />
    <glyph glyph-name="N_B" unicode="NB" horiz-adv-x="1178" 
d="M970 0h-413c-111 0 -173 62 -173 173v295c0 40 -11 52 -45 52h-134v-520h-173v694h352c110 0 173 -63 173 -174v-313c0 -28 5 -34 61 -34h310c27 0 41 18 41 45c0 36 -17 50 -41 50h-302v158h302c27 0 41 17 41 44c0 32 -17 50 -41 50h-305v174h347
c111 0 170 -63 170 -174v-86c0 -40 -21 -72 -47 -88c31 -15 51 -50 51 -86v-87c0 -111 -62 -173 -174 -173z" />
    <glyph glyph-name="N_D" unicode="ND" horiz-adv-x="1181" 
d="M973 0h-414c-111 0 -173 62 -173 173v295c0 40 -10 52 -45 52h-134v-520h-173v694h352c110 0 173 -63 173 -174v-313c0 -28 5 -34 61 -34h306c43 0 47 8 47 34v252c0 50 -11 61 -60 61h-113v-260h-173v434h346c111 0 174 -63 174 -174v-347c0 -111 -62 -173 -174 -173z
" />
    <glyph glyph-name="N_M" unicode="NM" horiz-adv-x="1354" 
d="M1320 0h-173v464c0 43 -9 56 -50 56h-37v-520h-173v520h-34c-41 0 -53 -11 -53 -56v-188c0 -106 -53 -174 -154 -174h-106c-99 0 -154 68 -154 174v192c0 40 -10 52 -45 52h-134v-520h-173v694h352c110 0 173 -63 173 -174v-211c0 -20 3 -33 26 -33h15c23 0 27 8 27 33
v211c0 111 64 174 173 174h347c110 0 173 -63 173 -174v-520z" />
    <glyph glyph-name="N_P" unicode="NP" horiz-adv-x="1182" 
d="M646 0h-87c-111 0 -173 62 -173 173v295c0 40 -10 52 -45 52h-134v-520h-173v694h352c110 0 173 -63 173 -174v-313c0 -21 3 -33 29 -33h10c25 0 30 22 30 43v227c0 152 118 260 260 260c140 0 260 -108 260 -260s-117 -260 -260 -260c-30 0 -59 5 -87 15v-26
c0 -105 -56 -173 -155 -173zM888 357c48 0 86 33 86 87s-38 87 -86 87c-49 0 -87 -33 -87 -87s38 -87 87 -87z" />
    <glyph glyph-name="M_D" unicode="MD" horiz-adv-x="1349" 
d="M1142 0h-414c-112 0 -174 62 -174 173v291c0 43 -9 56 -50 56h-37v-520h-173v520h-34c-41 0 -53 -11 -53 -56v-464h-173v520c0 111 64 174 173 174h347c110 0 174 -63 174 -174v-313c0 -28 5 -34 31 -34h335c44 0 48 8 48 34v252c0 50 -11 61 -60 61h-114v-260h-173v434
h347c110 0 173 -63 173 -174v-347c0 -111 -62 -173 -173 -173z" />
    <glyph glyph-name="M_M" unicode="MM" horiz-adv-x="1522" 
d="M1489 0h-174v464c0 43 -9 56 -50 56h-36v-520h-174v520h-34c-40 0 -53 -11 -53 -56v-188c0 -112 -60 -174 -173 -174h-67c-112 0 -174 62 -174 174v188c0 43 -9 56 -50 56h-37v-520h-173v520h-34c-41 0 -53 -11 -53 -56v-464h-173v520c0 111 64 174 173 174h347
c110 0 174 -63 174 -174v-211c0 -24 4 -33 24 -33h14c25 0 29 9 29 33v211c0 111 64 174 173 174h347c110 0 174 -63 174 -174v-520z" />
    <glyph glyph-name="M_M_S" unicode="MMS" horiz-adv-x="2100" 
d="M1903 0h-414c-111 0 -174 62 -174 173v291c0 43 -9 56 -50 56h-36v-520h-174v520h-34c-40 0 -53 -11 -53 -56v-188c0 -112 -60 -174 -173 -174h-67c-112 0 -174 62 -174 174v188c0 43 -9 56 -50 56h-37v-520h-173v520h-34c-41 0 -53 -11 -53 -56v-464h-173v520
c0 111 64 174 173 174h347c110 0 174 -63 174 -174v-211c0 -24 4 -33 24 -33h14c25 0 29 9 29 33v211c0 111 64 174 173 174h347c110 0 174 -63 174 -174v-313c0 -28 5 -34 31 -34h340c28 0 42 14 42 41c0 25 -17 46 -42 46h-17v174h60c110 0 174 -64 174 -174v-87
c0 -111 -63 -173 -174 -173zM2077 520h-304c-27 0 -41 -13 -41 -40c0 -25 17 -46 41 -46h18v-174h-61c-110 0 -174 63 -174 174v86c0 112 62 174 174 174h347v-174z" />
    <glyph glyph-name="M_P" unicode="MP" horiz-adv-x="1336" 
d="M814 0h-86c-112 0 -174 62 -174 173v291c0 43 -9 56 -50 56h-37v-520h-173v520h-34c-41 0 -53 -11 -53 -56v-464h-173v520c0 111 64 174 173 174h347c110 0 174 -63 174 -174v-313c0 -24 4 -34 20 -34h24c18 0 24 10 24 34v237c0 152 118 260 260 260
c140 0 260 -108 260 -260s-117 -260 -260 -260c-29 0 -59 5 -87 15v-26c0 -105 -56 -166 -155 -173zM1143 444c0 54 -39 87 -87 87c-49 0 -87 -33 -87 -87s38 -87 87 -87c48 0 87 33 87 87z" />
    <glyph glyph-name="M_S" unicode="MS" horiz-adv-x="1392" 
d="M1195 0h-414c-112 0 -174 62 -174 173v291c0 43 -9 56 -50 56h-37v-520h-173v520h-34c-41 0 -53 -11 -53 -56v-464h-173v520c0 111 64 174 173 174h347c110 0 174 -63 174 -174v-313c0 -28 5 -34 31 -34h340c28 0 42 14 42 41c0 25 -17 46 -42 46h-17v174h60
c110 0 173 -64 173 -174v-87c0 -111 -62 -173 -173 -173zM1368 520h-303c-27 0 -42 -13 -42 -40c0 -25 18 -46 42 -46h18v-174h-62c-109 0 -173 63 -173 174v86c0 112 62 174 173 174h347v-174z" />
    <glyph glyph-name="S_B" unicode="SB" horiz-adv-x="1155" 
d="M948 0h-347v173h304c28 0 42 18 42 45c0 36 -17 50 -42 50h-302v158h302c28 0 42 17 42 44c0 32 -17 50 -42 50h-664c-28 0 -42 -13 -42 -40c0 -25 17 -46 42 -46h17v-174h-61c-109 0 -174 63 -174 174v86c0 112 63 174 174 174h751c110 0 169 -63 169 -174v-86
c0 -40 -20 -72 -47 -88c32 -15 51 -50 51 -86v-87c0 -111 -62 -173 -173 -173zM370 0h-347v173h305c27 0 41 14 41 41c0 25 -17 46 -41 46h-18v174h60c111 0 174 -64 174 -174v-87c0 -111 -62 -173 -174 -173z" />
    <glyph glyph-name="S_H" unicode="SH" horiz-adv-x="1165" 
d="M1132 260h-347v-260h-174v434c0 83 -8 86 -60 86h-310c-28 0 -42 -13 -42 -40c0 -25 17 -46 42 -46h17v-174h-61c-109 0 -174 63 -174 174v86c0 112 63 174 174 174h414c110 0 174 -63 174 -174v-86h173v260h174v-434zM370 0h-347v173h305c27 0 41 14 41 41
c0 25 -17 46 -41 46h-18v174h60c111 0 174 -64 174 -174v-87c0 -111 -62 -173 -174 -173zM1132 0h-174v173h174v-173z" />
    <glyph glyph-name="S_N" unicode="SN" horiz-adv-x="1170" 
d="M1137 0h-174v468c0 40 -10 52 -45 52h-133v-520h-174v520h-370c-28 0 -42 -13 -42 -40c0 -25 17 -46 42 -46h17v-174h-61c-109 0 -174 63 -174 174v86c0 112 63 174 174 174h766c110 0 174 -63 174 -174v-520zM370 0h-347v173h305c27 0 41 14 41 41c0 25 -17 46 -41 46
h-18v174h60c111 0 174 -64 174 -174v-87c0 -111 -62 -173 -174 -173z" />
    <glyph glyph-name="S_U" unicode="SU" horiz-adv-x="1165" 
d="M958 0h-173c-109 0 -174 63 -174 173v314c0 28 -6 33 -60 33h-310c-28 0 -42 -13 -42 -40c0 -25 17 -46 42 -46h17v-174h-61c-109 0 -174 63 -174 174v86c0 112 63 174 174 174h414c111 0 174 -62 174 -174v-286c0 -49 11 -61 61 -61h52c49 0 60 12 60 61v460h174v-521
c0 -110 -64 -173 -174 -173zM370 0h-347v173h305c27 0 41 14 41 41c0 25 -17 46 -41 46h-18v174h60c111 0 174 -64 174 -174v-87c0 -111 -62 -173 -174 -173z" />
    <glyph glyph-name="S_W" unicode="SW" horiz-adv-x="1339" 
d="M1132 0h-347c-109 0 -174 63 -174 173v314c0 28 -4 33 -38 33h-332c-28 0 -42 -13 -42 -40c0 -25 17 -46 42 -46h17v-174h-61c-109 0 -174 63 -174 174v86c0 112 63 174 174 174h414c113 0 174 -62 174 -174v-290c0 -45 12 -57 53 -57h33v521h174v-521h37
c40 0 50 14 50 57v464h173v-521c0 -110 -63 -173 -173 -173zM370 0h-347v173h305c27 0 41 14 41 41c0 25 -17 46 -41 46h-18v174h60c111 0 174 -64 174 -174v-87c0 -111 -62 -173 -174 -173z" />
    <glyph glyph-name="S_W_U" unicode="SWU" horiz-adv-x="1927" 
d="M1719 0h-173c-109 0 -174 63 -174 173v212c0 23 -4 33 -23 33h-20c-20 0 -24 -10 -24 -33v-212c0 -110 -63 -173 -173 -173h-347c-109 0 -174 63 -174 173v314c0 28 -4 33 -38 33h-332c-28 0 -42 -13 -42 -40c0 -25 17 -46 42 -46h17v-174h-61c-109 0 -174 63 -174 174
v86c0 112 63 174 174 174h414c113 0 174 -62 174 -174v-290c0 -45 12 -57 53 -57h33v521h174v-521h37c40 0 50 14 50 57v188c0 112 62 174 173 174h67c112 0 174 -62 174 -174v-184c0 -49 11 -61 61 -61h52c49 0 60 12 60 61v460h174v-521c0 -110 -63 -173 -174 -173zM370 0
h-347v173h305c27 0 41 14 41 41c0 25 -17 46 -41 46h-18v174h60c111 0 174 -64 174 -174v-87c0 -111 -62 -173 -174 -173z" />
    <glyph glyph-name="S_Y" unicode="SY" horiz-adv-x="1129" 
d="M934 260h-174c-111 0 -173 62 -173 174v25c0 50 -11 61 -60 61h-286c-28 0 -42 -13 -42 -40c0 -25 17 -46 42 -46h17v-174h-61c-109 0 -174 63 -174 174v86c0 112 63 174 174 174h390c110 0 173 -63 173 -174v-26c0 -55 4 -60 34 -60h79c49 0 61 11 61 60v200h173v-260
c0 -110 -63 -174 -173 -174zM370 0h-347v173h305c27 0 41 14 41 41c0 25 -17 46 -41 46h-18v174h60c111 0 174 -64 174 -174v-87c0 -111 -62 -173 -174 -173zM934 0h-174v173h174v-173z" />
    <glyph glyph-name="T_T" unicode="TT" horiz-adv-x="715" 
d="M574 0h-173v694h281v-174h-108v-520zM314 0h-173v520h-107v174h280v-694z" />
    <glyph glyph-name="W_U" unicode="WU" horiz-adv-x="1349" 
d="M1142 0h-174c-109 0 -173 63 -173 173v218c0 18 -4 27 -22 27h-22c-17 0 -23 -9 -23 -27v-218c0 -110 -64 -173 -174 -173h-347c-109 0 -173 63 -173 173v521h173v-464c0 -45 12 -57 53 -57h34v521h173v-521h37c41 0 50 14 50 57v188c0 112 62 174 174 174h67
c111 0 173 -62 173 -174v-184c0 -49 12 -61 62 -61h52c49 0 60 12 60 61v460h173v-521c0 -110 -63 -173 -173 -173z" />
    <glyph glyph-name=".notdef" horiz-adv-x="891" 
d="M772 -172h-655c-56 0 -86 25 -86 75v812c0 50 30 76 86 76h655c59 0 88 -26 88 -76v-812c0 -50 -29 -75 -88 -75zM723 302l25 92c7 24 10 47 10 67c0 79 -50 141 -145 168l-368 99l-50 -185l323 -87c24 -7 35 -24 35 -39c0 -30 -21 -55 -48 -55c-3 0 -7 1 -11 2l-232 62
l-50 -185l278 -74c17 -5 33 -10 50 -10c90 0 157 41 183 145zM348 7c2 8 3 16 3 25c0 50 -41 95 -96 95c-51 0 -96 -40 -96 -96c0 -49 40 -95 97 -95c42 0 81 28 92 71z" />
    <glyph glyph-name="uni0017" horiz-adv-x="250" 
 />
    <glyph glyph-name="space" unicode=" " horiz-adv-x="250" 
 />
    <glyph glyph-name="exclam" unicode="!" horiz-adv-x="265" 
d="M217 260h-173v434h173v-434zM262 43c0 -71 -61 -130 -130 -130c-71 0 -130 59 -130 130c0 70 58 130 130 130c70 0 130 -60 130 -130zM176 43c0 24 -20 44 -44 44s-43 -20 -43 -44s19 -43 43 -43s44 19 44 43z" />
    <glyph glyph-name="quotedbl" unicode="&#x22;" horiz-adv-x="469" 
d="M204 347h-173v260c0 48 38 87 86 87s87 -39 87 -87v-260zM439 347h-173v260c0 48 38 87 86 87s87 -39 87 -87v-260z" />
    <glyph glyph-name="numbersign" unicode="#" horiz-adv-x="691" 
d="M500 0h-144l20 141h-120l-19 -141h-144l20 141h-92l20 144h92l17 119h-93l21 143h91l21 147h144l-22 -147h121l20 147h143l-20 -147h90l-19 -143h-92l-15 -119h90l-20 -144h-91zM396 285l16 119h-119l-17 -119h120z" />
    <glyph glyph-name="dollar" unicode="$" horiz-adv-x="454" 
d="M227 0h-139v208h161c36 0 45 4 45 38c0 23 -8 32 -48 32h-89c-93 0 -139 46 -139 137v71c0 92 46 138 139 138h70v70h138v-208h-138c-60 0 -68 -4 -68 -38c0 -25 10 -33 33 -33h104c92 0 139 -46 139 -137v-70c0 -93 -47 -139 -139 -139h-69v-69z" />
    <glyph glyph-name="percent" unicode="%" horiz-adv-x="720" 
d="M279 571v-140c0 -65 -55 -122 -123 -122c-66 0 -122 56 -122 122v140c0 68 57 123 122 123c67 0 123 -56 123 -123zM173 431v140c0 10 -7 17 -17 17c-9 0 -16 -7 -16 -17v-140c0 -10 7 -16 16 -16c10 0 17 6 17 16zM177 0h-132l498 694h131zM686 262v-140
c0 -65 -55 -122 -123 -122c-66 0 -122 56 -122 122v140c0 68 57 123 122 123c67 0 123 -56 123 -123zM580 122v140c0 10 -7 17 -17 17c-9 0 -16 -7 -16 -17v-140c0 -10 7 -16 16 -16c10 0 17 6 17 16z" />
    <glyph glyph-name="ampersand" unicode="&#x26;" horiz-adv-x="632" 
d="M598 0h-148c-28 0 -51 11 -69 35c-18 -24 -41 -35 -70 -35h-104c-115 0 -173 58 -173 173v87c0 36 20 64 55 86c-30 10 -52 51 -52 88v86c0 111 61 174 170 174h87v-174h-43c-24 0 -42 -14 -42 -46c0 -27 14 -42 42 -42h87v88h173v-88h87v-170h-87v-55
c0 -28 5 -34 34 -34h53v-173zM338 173v89h-87c-24 0 -42 -15 -42 -48c0 -27 14 -41 42 -41h87z" />
    <glyph glyph-name="quotesingle" unicode="'" horiz-adv-x="235" 
d="M204 347h-173v260c0 48 38 87 86 87s87 -39 87 -87v-260z" />
    <glyph glyph-name="parenleft" unicode="(" horiz-adv-x="367" 
d="M358 -224h-32c-147 0 -222 81 -222 198v699c0 118 75 199 222 199h32v-116h-34c-48 0 -73 -17 -73 -80v-704c0 -63 25 -80 73 -80h34v-116z" />
    <glyph glyph-name="parenright" unicode=")" horiz-adv-x="367" 
d="M42 -224h-33v116h34c49 0 73 17 73 80v704c0 63 -24 80 -73 80h-34v116h33c147 0 221 -81 221 -199v-699c0 -117 -74 -198 -221 -198z" />
    <glyph glyph-name="asterisk" unicode="*" horiz-adv-x="474" 
d="M446 347c0 -113 -95 -208 -208 -208c-115 0 -208 94 -208 208s93 208 208 208c113 0 208 -95 208 -208zM386 299l-94 65l37 109l-91 -68l-92 68l37 -109l-94 -64h114l35 -109l33 108h115z" />
    <glyph glyph-name="plus" unicode="+" horiz-adv-x="610" 
d="M378 101h-144v177h-178v144h178v176h144v-176h176v-144h-176v-177z" />
    <glyph glyph-name="comma" unicode="," horiz-adv-x="296" 
d="M261 -173h-52c-111 0 -173 62 -173 173v87c0 48 38 86 86 86s87 -38 87 -86v-27c0 -58 5 -60 26 -60h26v-173z" />
    <glyph glyph-name="hyphen" unicode="-" horiz-adv-x="411" 
d="M379 249h-347v173h347v-173z" />
    <glyph glyph-name="period" unicode="." horiz-adv-x="319" 
d="M290 43c0 -71 -61 -130 -131 -130s-129 59 -129 130c0 70 58 130 129 130s131 -60 131 -130zM203 43c0 24 -19 44 -44 44c-23 0 -43 -20 -43 -44s20 -43 43 -43c25 0 44 19 44 43z" />
    <glyph glyph-name="slash" unicode="/" horiz-adv-x="565" 
d="M147 -103h-147l419 835h146z" />
    <glyph glyph-name="zero" unicode="0" horiz-adv-x="501" 
d="M467 487v-281c0 -116 -87 -216 -216 -216s-217 98 -217 216v281c0 120 88 217 217 217s216 -98 216 -217zM294 206v281c0 24 -18 44 -43 44c-24 0 -44 -20 -44 -44v-281c0 -23 20 -43 44 -43c25 0 43 20 43 43z" />
    <glyph glyph-name="one" unicode="1" horiz-adv-x="314" 
d="M281 0h-174v477c0 31 -12 43 -43 43h-44v174h87c110 0 174 -63 174 -174v-520z" />
    <glyph glyph-name="two" unicode="2" 
d="M381 260h-347v174h303c24 0 42 21 42 46c0 27 -15 40 -42 40h-303v174h347c111 0 173 -62 173 -174v-86c0 -111 -64 -174 -173 -174zM554 0h-520v173h520v-173z" />
    <glyph glyph-name="three" unicode="3" 
d="M381 0h-347v173h304c27 0 42 18 42 45c0 36 -18 50 -42 50h-302v158h302c27 0 42 17 42 44c0 32 -18 50 -42 50h-304v174h347c110 0 169 -63 169 -174v-86c0 -40 -20 -72 -47 -88c32 -15 51 -50 51 -86v-87c0 -111 -62 -173 -173 -173z" />
    <glyph glyph-name="four" unicode="4" horiz-adv-x="552" 
d="M518 0h-173v694h173v-694zM293 173h-260v521h173v-347h87v-174z" />
    <glyph glyph-name="five" unicode="5" 
d="M545 520h-511v174h511v-174zM381 0h-347v173h303c27 0 42 14 42 41c0 25 -18 46 -42 46h-303v174h347c109 0 173 -64 173 -174v-87c0 -111 -62 -173 -173 -173z" />
    <glyph glyph-name="six" unicode="6" horiz-adv-x="577" 
d="M381 0h-174c-111 0 -173 62 -173 173v521h173v-252c11 11 24 17 57 17h117c110 0 173 -63 173 -173v-113c0 -111 -62 -173 -173 -173zM379 214v36c0 28 -14 41 -39 41h-93c-26 0 -39 -13 -39 -41v-36c0 -27 13 -41 39 -41h93c25 0 39 14 39 41z" />
    <glyph glyph-name="seven" unicode="7" horiz-adv-x="473" 
d="M280 0h-174l151 520h-238v174h434v-104z" />
    <glyph glyph-name="eight" unicode="8" 
d="M381 0h-174c-111 0 -173 62 -173 173v87c0 36 19 71 51 86c-27 16 -47 48 -47 88v86c0 111 59 174 169 174h174c110 0 169 -63 169 -174v-86c0 -40 -20 -72 -47 -88c32 -15 51 -50 51 -86v-87c0 -111 -62 -173 -173 -173zM250 173h88c27 0 42 18 42 45
c0 36 -18 50 -42 50h-88c-24 0 -42 -14 -42 -50c0 -27 14 -45 42 -45zM250 426h88c27 0 42 17 42 44c0 32 -18 50 -42 50h-88c-24 0 -42 -18 -42 -50c0 -27 14 -44 42 -44z" />
    <glyph glyph-name="nine" unicode="9" horiz-adv-x="577" 
d="M545 0h-174v252c-11 -11 -23 -17 -57 -17h-116c-110 0 -174 63 -174 173v112c0 112 63 174 174 174h173c112 0 174 -62 174 -174v-520zM370 444v36c0 27 -13 40 -38 40h-93c-26 0 -39 -13 -39 -40v-36c0 -28 13 -41 39 -41h93c25 0 38 13 38 41z" />
    <glyph glyph-name="colon" unicode=":" horiz-adv-x="434" 
d="M347 155c0 -70 -61 -129 -131 -129s-129 59 -129 129c0 71 58 131 129 131s131 -60 131 -131zM260 155c0 25 -19 44 -44 44c-23 0 -43 -19 -43 -44c0 -23 20 -43 43 -43c25 0 44 20 44 43zM347 471c0 -70 -61 -129 -131 -129s-129 59 -129 129c0 71 58 131 129 131
s131 -60 131 -131zM260 471c0 25 -19 44 -44 44c-23 0 -43 -19 -43 -44c0 -23 20 -42 43 -42c25 0 44 19 44 42z" />
    <glyph glyph-name="semicolon" unicode=";" horiz-adv-x="434" 
d="M347 471c0 -70 -61 -129 -131 -129s-129 59 -129 129c0 71 58 131 129 131s131 -60 131 -131zM260 471c0 25 -19 44 -44 44c-23 0 -43 -19 -43 -44c0 -23 20 -42 43 -42c25 0 44 19 44 42zM355 -173h-52c-111 0 -173 62 -173 173v87c0 48 38 86 86 86s87 -38 87 -86v-27
c0 -58 5 -60 26 -60h26v-173z" />
    <glyph glyph-name="less" unicode="&#x3c;" horiz-adv-x="610" 
d="M554 19l-431 210c-39 19 -67 44 -67 95c0 49 28 75 67 95l431 210v-162l-306 -143l306 -143v-162z" />
    <glyph glyph-name="equal" unicode="=" horiz-adv-x="610" 
d="M554 146h-498v144h498v-144zM554 410h-498v144h498v-144z" />
    <glyph glyph-name="greater" unicode="&#x3e;" horiz-adv-x="610" 
d="M487 229l-431 -210v162l306 143l-306 143v162l431 -210c40 -20 67 -46 67 -95c0 -51 -27 -76 -67 -95z" />
    <glyph glyph-name="question" unicode="?" horiz-adv-x="559" 
d="M366 260h-260v174h217c25 0 42 21 42 46c0 27 -14 40 -42 40h-304v174h347c112 0 174 -62 174 -174v-86c0 -111 -63 -174 -174 -174zM308 43c0 -71 -61 -130 -130 -130c-71 0 -130 59 -130 130c0 70 58 130 130 130c70 0 130 -60 130 -130zM221 43c0 24 -19 44 -43 44
s-43 -20 -43 -44s19 -43 43 -43s43 19 43 43z" />
    <glyph glyph-name="at" unicode="@" horiz-adv-x="637" 
d="M333 -164h-143c-121 0 -156 41 -156 152v474c0 111 35 152 156 152h259c121 0 154 -41 154 -152v-255c0 -112 -36 -151 -157 -151h-51c-122 0 -155 39 -155 151v48c0 111 33 151 155 151h83v45c0 29 -12 39 -39 39h-238c-29 0 -39 -10 -39 -39v-452c0 -30 10 -40 39 -40
h132v-123zM478 214v73h-75c-27 0 -37 -11 -37 -41v-32c0 -28 10 -41 37 -41h36c27 0 39 13 39 41z" />
    <glyph glyph-name="A" unicode="A" horiz-adv-x="740" 
d="M726 0h-184l-175 463l-172 -463h-181l259 695h191zM453 0h-170l85 234z" />
    <glyph glyph-name="B" unicode="B" 
d="M381 0h-347v173h304c27 0 42 18 42 45c0 36 -18 50 -42 50h-302v158h302c27 0 42 17 42 44c0 32 -18 50 -42 50h-304v174h347c110 0 169 -63 169 -174v-86c0 -40 -20 -72 -47 -88c32 -15 51 -50 51 -86v-87c0 -111 -62 -173 -173 -173z" />
    <glyph glyph-name="C" unicode="C" horiz-adv-x="569" 
d="M554 0h-347c-111 0 -173 62 -173 173v347c0 111 63 174 173 174h347v-174h-287c-49 0 -60 -11 -60 -61v-252c0 -29 5 -34 60 -34h287v-173z" />
    <glyph glyph-name="D" unicode="D" horiz-adv-x="585" 
d="M379 0h-347v173h299c43 0 48 8 48 34v252c0 50 -12 61 -61 61h-113v-260h-173v434h347c110 0 173 -63 173 -174v-347c0 -111 -62 -173 -173 -173z" />
    <glyph glyph-name="E" unicode="E" 
d="M554 0h-347c-111 0 -173 62 -173 173v87c0 36 19 71 51 86c-27 16 -47 48 -47 88v86c0 111 59 174 169 174h347v-174h-304c-24 0 -42 -18 -42 -50c0 -27 14 -44 42 -44h302v-158h-302c-24 0 -42 -14 -42 -50c0 -27 14 -45 42 -45h304v-173z" />
    <glyph glyph-name="F" unicode="F" horiz-adv-x="569" 
d="M371 0h-173v260c-110 0 -174 64 -174 174v86c0 112 63 174 174 174h347v-174h-304c-28 0 -42 -13 -42 -40c0 -25 17 -46 42 -46h304v-174h-174v-260z" />
    <glyph glyph-name="G" unicode="G" 
d="M554 0h-347c-113 0 -173 62 -173 173v347c0 111 63 174 173 174h344v-174h-284c-49 0 -60 -11 -61 -61v-252c0 -28 5 -34 61 -34h114v261h173v-434z" />
    <glyph glyph-name="H" unicode="H" 
d="M554 260h-347v-260h-173v694h173v-260h174v260h173v-434zM554 0h-173v173h173v-173z" />
    <glyph glyph-name="I" unicode="I" horiz-adv-x="392" 
d="M369 0h-347v173h87v347h-87v174h347v-174h-86v-347h86v-173z" />
    <glyph glyph-name="J" unicode="J" horiz-adv-x="501" 
d="M294 0h-260v173h200c54 0 60 5 60 34v313h-174v174h347v-521c0 -111 -62 -173 -173 -173z" />
    <glyph glyph-name="K" unicode="K" 
d="M381 390h-347v304h173v-137h112c50 0 62 12 62 61v76h173v-131c0 -109 -64 -173 -173 -173zM554 0h-173v76c0 48 -12 60 -62 60h-112v-136h-173v303h347c109 0 173 -63 173 -173v-130z" />
    <glyph glyph-name="L" unicode="L" horiz-adv-x="511" 
d="M478 0h-444v694h173v-521h271v-173z" />
    <glyph glyph-name="M" unicode="M" horiz-adv-x="761" 
d="M728 0h-174v464c0 43 -9 56 -50 56h-37v-520h-173v520h-34c-41 0 -53 -11 -53 -56v-464h-173v520c0 111 64 174 173 174h347c110 0 174 -63 174 -174v-520z" />
    <glyph glyph-name="N" unicode="N" horiz-adv-x="593" 
d="M559 0h-173v468c0 40 -10 52 -45 52h-134v-520h-173v694h352c110 0 173 -63 173 -174v-520z" />
    <glyph glyph-name="O" unicode="O" horiz-adv-x="724" 
d="M362 -10c-194 0 -347 150 -347 357s153 357 347 357s347 -150 347 -357s-153 -357 -347 -357zM362 163c95 0 176 66 176 184s-81 184 -176 184s-175 -66 -175 -184s80 -184 175 -184zM362 260c-49 0 -84 39 -84 87s35 87 84 87s85 -39 85 -87s-36 -87 -85 -87z" />
    <glyph glyph-name="P" unicode="P" horiz-adv-x="573" 
d="M207 0h-173v444c0 152 118 260 260 260c140 0 260 -108 260 -260s-117 -260 -260 -260c-30 0 -59 5 -87 15v-199zM381 444c0 54 -39 87 -87 87c-49 0 -87 -33 -87 -87s38 -87 87 -87c48 0 87 33 87 87z" />
    <glyph glyph-name="Q" unicode="Q" horiz-adv-x="724" 
d="M449 -173h-173v179c-152 36 -261 165 -261 341c0 207 153 357 347 357s347 -150 347 -357c0 -176 -109 -305 -260 -341v-179zM362 163c95 0 176 66 176 184s-81 184 -176 184s-175 -66 -175 -184s80 -184 175 -184zM362 260c-49 0 -84 39 -84 87s35 87 84 87
s85 -39 85 -87s-36 -87 -85 -87z" />
    <glyph glyph-name="R" unicode="R" horiz-adv-x="574" 
d="M554 0h-208l-139 199v-199h-173v444c0 155 118 260 260 260c143 0 260 -109 260 -260c0 -110 -56 -190 -145 -234zM381 444c0 54 -39 87 -87 87c-49 0 -87 -33 -87 -87s38 -87 87 -87c48 0 87 33 87 87z" />
    <glyph glyph-name="S" unicode="S" horiz-adv-x="567" 
d="M544 520h-303c-28 0 -42 -13 -42 -40c0 -25 17 -46 42 -46h17v-174h-61c-109 0 -174 63 -174 174v86c0 112 63 174 174 174h347v-174zM370 0h-347v173h305c27 0 41 14 41 41c0 25 -17 46 -41 46h-18v174h60c111 0 174 -64 174 -174v-87c0 -111 -62 -173 -174 -173z" />
    <glyph glyph-name="T" unicode="T" horiz-adv-x="618" 
d="M396 0h-174v520h-188v174h551v-174h-189v-520z" />
    <glyph glyph-name="U" unicode="U" 
d="M381 0h-174c-109 0 -173 63 -173 173v521h173v-460c0 -49 11 -61 61 -61h52c49 0 61 12 61 61v460h173v-521c0 -110 -63 -173 -173 -173z" />
    <glyph glyph-name="V" unicode="V" horiz-adv-x="740" 
d="M376 460l-86 234h170zM464 0h-191l-259 694h188l172 -462l175 462h177z" />
    <glyph glyph-name="W" unicode="W" horiz-adv-x="761" 
d="M554 0h-347c-109 0 -173 63 -173 173v521h173v-464c0 -45 12 -57 53 -57h34v521h173v-521h37c41 0 50 14 50 57v464h174v-521c0 -110 -64 -173 -174 -173z" />
    <glyph glyph-name="X" unicode="X" 
d="M381 390h-174c-111 0 -173 62 -173 173v131h173v-70c0 -56 6 -61 33 -61c64 0 98 0 103 1c35 5 38 2 38 130h173v-131c0 -109 -64 -173 -173 -173zM554 0h-173c0 128 -3 123 -38 130c-5 1 -39 1 -103 1c-27 0 -33 -5 -33 -62v-69h-173v130c0 113 62 173 173 173h174
c109 0 173 -63 173 -173v-130z" />
    <glyph glyph-name="Y" unicode="Y" horiz-adv-x="562" 
d="M367 260h-173c-111 0 -174 62 -174 174v260h174v-200c0 -55 4 -60 34 -60h79c49 0 60 11 60 60v200h174v-260c0 -110 -63 -174 -174 -174zM367 0h-173v173h173v-173z" />
    <glyph glyph-name="Z" unicode="Z" horiz-adv-x="570" 
d="M545 0h-521v173l295 347h-295v174h521v-174l-295 -347h295v-173z" />
    <glyph glyph-name="bracketleft" unicode="[" horiz-adv-x="386" 
d="M376 -224h-272v1096h272v-115h-125v-865h125v-116z" />
    <glyph glyph-name="backslash" unicode="\" horiz-adv-x="565" 
d="M565 -103h-147l-418 835h146z" />
    <glyph glyph-name="bracketright" unicode="]" horiz-adv-x="386" 
d="M376 -224h-272v116h125v865h-125v115h272v-1096z" />
    <glyph glyph-name="asciicircum" unicode="^" horiz-adv-x="666" 
d="M638 197h-161l-143 306l-144 -306h-160l209 431c19 39 44 66 95 66c49 0 75 -27 95 -66z" />
    <glyph glyph-name="underscore" unicode="_" horiz-adv-x="608" 
d="M609 -164h-611v146h611v-146z" />
    <glyph glyph-name="grave" unicode="`" horiz-adv-x="424" 
d="M373 767h-165l-158 200h211z" />
    <glyph glyph-name="a" unicode="a" horiz-adv-x="740" 
d="M726 0h-184l-175 463l-172 -463h-181l259 695h191zM453 0h-170l85 234z" />
    <glyph glyph-name="b" unicode="b" 
d="M381 0h-347v173h304c27 0 42 18 42 45c0 36 -18 50 -42 50h-302v158h302c27 0 42 17 42 44c0 32 -18 50 -42 50h-304v174h347c110 0 169 -63 169 -174v-86c0 -40 -20 -72 -47 -88c32 -15 51 -50 51 -86v-87c0 -111 -62 -173 -173 -173z" />
    <glyph glyph-name="c" unicode="c" horiz-adv-x="569" 
d="M554 0h-347c-111 0 -173 62 -173 173v347c0 111 63 174 173 174h347v-174h-287c-49 0 -60 -11 -60 -61v-252c0 -29 5 -34 60 -34h287v-173z" />
    <glyph glyph-name="d" unicode="d" horiz-adv-x="585" 
d="M379 0h-347v173h299c43 0 48 8 48 34v252c0 50 -12 61 -61 61h-113v-260h-173v434h347c110 0 173 -63 173 -174v-347c0 -111 -62 -173 -173 -173z" />
    <glyph glyph-name="e" unicode="e" 
d="M554 0h-347c-111 0 -173 62 -173 173v87c0 36 19 71 51 86c-27 16 -47 48 -47 88v86c0 111 59 174 169 174h347v-174h-304c-24 0 -42 -18 -42 -50c0 -27 14 -44 42 -44h302v-158h-302c-24 0 -42 -14 -42 -50c0 -27 14 -45 42 -45h304v-173z" />
    <glyph glyph-name="f" unicode="f" horiz-adv-x="569" 
d="M371 0h-173v260c-110 0 -174 64 -174 174v86c0 112 63 174 174 174h347v-174h-304c-28 0 -42 -13 -42 -40c0 -25 17 -46 42 -46h304v-174h-174v-260z" />
    <glyph glyph-name="g" unicode="g" 
d="M554 0h-347c-113 0 -173 62 -173 173v347c0 111 63 174 173 174h344v-174h-284c-49 0 -60 -11 -61 -61v-252c0 -28 5 -34 61 -34h114v261h173v-434z" />
    <glyph glyph-name="h" unicode="h" 
d="M554 260h-347v-260h-173v694h173v-260h174v260h173v-434zM554 0h-173v173h173v-173z" />
    <glyph glyph-name="i" unicode="i" horiz-adv-x="392" 
d="M369 0h-347v173h87v347h-87v174h347v-174h-86v-347h86v-173z" />
    <glyph glyph-name="j" unicode="j" horiz-adv-x="501" 
d="M294 0h-260v173h200c54 0 60 5 60 34v313h-174v174h347v-521c0 -111 -62 -173 -173 -173z" />
    <glyph glyph-name="k" unicode="k" 
d="M381 390h-347v304h173v-137h112c50 0 62 12 62 61v76h173v-131c0 -109 -64 -173 -173 -173zM554 0h-173v76c0 48 -12 60 -62 60h-112v-136h-173v303h347c109 0 173 -63 173 -173v-130z" />
    <glyph glyph-name="l" unicode="l" horiz-adv-x="511" 
d="M478 0h-444v694h173v-521h271v-173z" />
    <glyph glyph-name="m" unicode="m" horiz-adv-x="761" 
d="M728 0h-174v464c0 43 -9 56 -50 56h-37v-520h-173v520h-34c-41 0 -53 -11 -53 -56v-464h-173v520c0 111 64 174 173 174h347c110 0 174 -63 174 -174v-520z" />
    <glyph glyph-name="n" unicode="n" horiz-adv-x="593" 
d="M559 0h-173v468c0 40 -10 52 -45 52h-134v-520h-173v694h352c110 0 173 -63 173 -174v-520z" />
    <glyph glyph-name="o" unicode="o" horiz-adv-x="724" 
d="M362 -10c-194 0 -347 150 -347 357s153 357 347 357s347 -150 347 -357s-153 -357 -347 -357zM362 163c95 0 176 66 176 184s-81 184 -176 184s-175 -66 -175 -184s80 -184 175 -184zM362 260c-49 0 -84 39 -84 87s35 87 84 87s85 -39 85 -87s-36 -87 -85 -87z" />
    <glyph glyph-name="p" unicode="p" horiz-adv-x="573" 
d="M207 0h-173v444c0 152 118 260 260 260c140 0 260 -108 260 -260s-117 -260 -260 -260c-30 0 -59 5 -87 15v-199zM381 444c0 54 -39 87 -87 87c-49 0 -87 -33 -87 -87s38 -87 87 -87c48 0 87 33 87 87z" />
    <glyph glyph-name="q" unicode="q" horiz-adv-x="724" 
d="M449 -173h-173v179c-152 36 -261 165 -261 341c0 207 153 357 347 357s347 -150 347 -357c0 -176 -109 -305 -260 -341v-179zM362 163c95 0 176 66 176 184s-81 184 -176 184s-175 -66 -175 -184s80 -184 175 -184zM362 260c-49 0 -84 39 -84 87s35 87 84 87
s85 -39 85 -87s-36 -87 -85 -87z" />
    <glyph glyph-name="r" unicode="r" horiz-adv-x="574" 
d="M554 0h-208l-139 199v-199h-173v444c0 155 118 260 260 260c143 0 260 -109 260 -260c0 -110 -56 -190 -145 -234zM381 444c0 54 -39 87 -87 87c-49 0 -87 -33 -87 -87s38 -87 87 -87c48 0 87 33 87 87z" />
    <glyph glyph-name="s" unicode="s" horiz-adv-x="567" 
d="M544 520h-303c-28 0 -42 -13 -42 -40c0 -25 17 -46 42 -46h17v-174h-61c-109 0 -174 63 -174 174v86c0 112 63 174 174 174h347v-174zM370 0h-347v173h305c27 0 41 14 41 41c0 25 -17 46 -41 46h-18v174h60c111 0 174 -64 174 -174v-87c0 -111 -62 -173 -174 -173z" />
    <glyph glyph-name="t" unicode="t" horiz-adv-x="618" 
d="M396 0h-174v520h-188v174h551v-174h-189v-520z" />
    <glyph glyph-name="u" unicode="u" 
d="M381 0h-174c-109 0 -173 63 -173 173v521h173v-460c0 -49 11 -61 61 -61h52c49 0 61 12 61 61v460h173v-521c0 -110 -63 -173 -173 -173z" />
    <glyph glyph-name="v" unicode="v" horiz-adv-x="740" 
d="M376 460l-86 234h170zM464 0h-191l-259 694h188l172 -462l175 462h177z" />
    <glyph glyph-name="w" unicode="w" horiz-adv-x="761" 
d="M554 0h-347c-109 0 -173 63 -173 173v521h173v-464c0 -45 12 -57 53 -57h34v521h173v-521h37c41 0 50 14 50 57v464h174v-521c0 -110 -64 -173 -174 -173z" />
    <glyph glyph-name="x" unicode="x" 
d="M381 390h-174c-111 0 -173 62 -173 173v131h173v-70c0 -56 6 -61 33 -61c64 0 98 0 103 1c35 5 38 2 38 130h173v-131c0 -109 -64 -173 -173 -173zM554 0h-173c0 128 -3 123 -38 130c-5 1 -39 1 -103 1c-27 0 -33 -5 -33 -62v-69h-173v130c0 113 62 173 173 173h174
c109 0 173 -63 173 -173v-130z" />
    <glyph glyph-name="y" unicode="y" horiz-adv-x="562" 
d="M367 260h-173c-111 0 -174 62 -174 174v260h174v-200c0 -55 4 -60 34 -60h79c49 0 60 11 60 60v200h174v-260c0 -110 -63 -174 -174 -174zM367 0h-173v173h173v-173z" />
    <glyph glyph-name="z" unicode="z" horiz-adv-x="570" 
d="M545 0h-521v173l295 347h-295v174h521v-174l-295 -347h295v-173z" />
    <glyph glyph-name="braceleft" unicode="{" horiz-adv-x="358" 
d="M349 -224h-113c-89 0 -116 32 -116 129v294c0 42 -15 55 -48 55h-7c-41 0 -56 24 -56 70s15 70 56 70h7c33 0 48 13 48 55v294c0 97 27 129 116 129h113v-116h-55c-18 0 -26 -10 -26 -35v-303c0 -63 -27 -91 -59 -94c32 -3 59 -31 59 -94v-303c0 -25 8 -35 26 -35h55
v-116z" />
    <glyph glyph-name="bar" unicode="|" horiz-adv-x="308" 
d="M228 -224h-148v1096h148v-1096z" />
    <glyph glyph-name="braceright" unicode="}" horiz-adv-x="358" 
d="M122 -224h-113v116h55c19 0 26 10 26 35v303c0 63 27 91 59 94c-32 3 -59 31 -59 94v303c0 25 -7 35 -26 35h-55v116h113c89 0 116 -32 116 -129v-294c0 -42 15 -55 48 -55h7c41 0 56 -24 56 -70s-15 -70 -56 -70h-7c-33 0 -48 -13 -48 -55v-294
c0 -97 -27 -129 -116 -129z" />
    <glyph glyph-name="asciitilde" unicode="~" horiz-adv-x="610" 
d="M554 299l-111 -36c-9 -4 -17 -6 -25 -6c-5 0 -11 1 -19 3l-183 55c-4 1 -8 2 -11 2s-7 -1 -12 -3l-137 -46v155l111 37c11 4 19 6 26 6c5 0 11 -2 19 -5l183 -53c4 -1 8 -2 12 -2c3 0 6 1 11 3l136 44v-154z" />
    <glyph glyph-name="nbspace" unicode="&#xa0;" horiz-adv-x="250" 
 />
    <glyph glyph-name="exclamdown" unicode="&#xa1;" horiz-adv-x="265" 
d="M220 -102h-173v434h173v-434zM133 418c-71 0 -131 61 -131 131s61 130 131 130s129 -60 129 -130s-58 -131 -129 -131zM133 505c23 0 43 19 43 44c0 23 -20 43 -43 43c-25 0 -44 -20 -44 -43c0 -25 19 -44 44 -44z" />
    <glyph glyph-name="cent" unicode="&#xa2;" horiz-adv-x="416" 
d="M386 0h-139v102h-40c-111 0 -173 62 -173 174v142c0 111 64 174 173 174h40v102h139v-276h-118c-50 0 -61 -11 -61 -61v-48c0 -29 5 -33 61 -33h118v-276z" />
    <glyph glyph-name="sterling" unicode="&#xa3;" horiz-adv-x="586" 
d="M440 268h-408v252c0 112 62 174 173 174h347v-174h-303c-28 0 -42 -13 -42 -40v-54h233v-158zM552 0h-520v173h520v-173z" />
    <glyph glyph-name="currency" unicode="&#xa4;" horiz-adv-x="749" 
d="M720 77l-77 -77l-144 150h-252l-145 -150l-74 77l146 145v254l-146 144l74 76l145 -146h252l144 146l77 -76l-149 -144v-254zM461 259v179h-176v-179h176z" />
    <glyph glyph-name="yen" unicode="&#xa5;" horiz-adv-x="619" 
d="M536 63h-146v-63h-163v63h-143v144h143v44h-143v145h124l-199 298h192l111 -183l115 183h182l-198 -298h125v-145h-146v-44h146v-144z" />
    <glyph glyph-name="brokenbar" unicode="&#xa6;" horiz-adv-x="308" 
d="M228 429h-148v443h148v-443zM228 -224h-148v443h148v-443z" />
    <glyph glyph-name="section" unicode="&#xa7;" horiz-adv-x="595" 
d="M324 -224h-290v166h275c42 0 57 14 57 53v28h-98c-181 0 -234 55 -234 204v264c0 149 53 203 234 203h94v-165h-77c-43 0 -58 -15 -58 -55v-26h97c182 0 236 -53 236 -203v-265c0 -150 -54 -204 -236 -204zM366 190v39c0 39 -15 54 -57 54h-82v-40c0 -40 15 -53 58 -53
h81z" />
    <glyph glyph-name="dieresis" unicode="&#xa8;" horiz-adv-x="634" 
d="M595 845c0 -71 -61 -130 -131 -130s-129 59 -129 130c0 70 58 131 129 131s131 -61 131 -131zM508 845c0 24 -19 44 -44 44c-23 0 -43 -20 -43 -44s20 -43 43 -43c25 0 44 19 44 43zM299 845c0 -71 -61 -130 -131 -130s-129 59 -129 130c0 70 58 131 129 131
s131 -61 131 -131zM212 845c0 24 -19 44 -44 44c-23 0 -42 -20 -42 -44s19 -43 42 -43c25 0 44 19 44 43z" />
    <glyph glyph-name="copyright" unicode="&#xa9;" horiz-adv-x="666" 
d="M357 0h-48c-213 0 -275 63 -275 239v216c0 176 62 239 275 239h48c213 0 276 -63 276 -239v-216c0 -176 -63 -239 -276 -239zM530 239v216c0 106 -32 136 -173 136h-48c-141 0 -172 -30 -172 -136v-216c0 -106 31 -135 172 -135h48c141 0 173 29 173 135zM446 194h-162
c-52 0 -81 28 -81 80v163c0 52 30 81 81 81h162v-81h-134c-22 0 -28 -5 -28 -29v-117c0 -14 3 -17 28 -17h134v-80z" />
    <glyph glyph-name="ordfeminine" unicode="&#xaa;" horiz-adv-x="438" 
d="M416 307h-112l-89 237l-87 -237h-112l143 386h111zM269 307h-109l56 150z" />
    <glyph glyph-name="guillemotleft" unicode="&#xab;" horiz-adv-x="590" 
d="M265 69l-195 146c-32 25 -54 56 -54 121c0 62 22 94 54 117l195 144v-200l-93 -65l93 -66v-197zM560 69l-195 146c-32 25 -54 56 -54 121c0 62 22 94 54 117l195 144v-200l-93 -65l93 -66v-197z" />
    <glyph glyph-name="logicalnot" unicode="&#xac;" horiz-adv-x="598" 
d="M542 0h-151v277h-355v147h506v-424z" />
    <glyph glyph-name="registered" unicode="&#xae;" horiz-adv-x="666" 
d="M357 0h-48c-213 0 -275 63 -275 239v216c0 176 62 239 275 239h48c213 0 276 -63 276 -239v-216c0 -176 -63 -239 -276 -239zM530 239v216c0 106 -32 136 -173 136h-48c-141 0 -172 -30 -172 -136v-216c0 -106 31 -135 172 -135h48c141 0 173 29 173 135zM454 194h-97
l-64 93v-93h-82v207c0 72 56 121 122 121c67 0 121 -51 121 -121c0 -51 -25 -89 -67 -109zM333 360c22 0 40 16 40 41c0 26 -18 41 -40 41c-23 0 -40 -15 -40 -41c0 -25 17 -41 40 -41z" />
    <glyph glyph-name="macron" unicode="&#xaf;" horiz-adv-x="602" 
d="M552 787h-502v141h502v-141z" />
    <glyph glyph-name="degree" unicode="&#xb0;" horiz-adv-x="483" 
d="M282 319h-80c-135 0 -172 39 -172 149v77c0 109 37 149 172 149h80c133 0 172 -40 172 -149v-77c0 -110 -39 -149 -172 -149zM312 480v53c0 29 -11 39 -42 39h-57c-31 0 -43 -10 -43 -39v-53c0 -29 12 -39 43 -39h57c31 0 42 10 42 39z" />
    <glyph glyph-name="plusminus" unicode="&#xb1;" horiz-adv-x="610" 
d="M378 112h-144v177h-178v145h178v175h144v-175h176v-145h-176v-177zM554 -67h-498v145h498v-145z" />
    <glyph glyph-name="twosuperior" unicode="&#xb2;" horiz-adv-x="354" 
d="M221 449h-191v105h169c8 0 15 8 15 18c0 11 -6 16 -15 16h-169v106h191c65 0 100 -36 100 -100v-46c0 -63 -36 -99 -100 -99zM321 309h-291v106h291v-106z" />
    <glyph glyph-name="threesuperior" unicode="&#xb3;" horiz-adv-x="354" 
d="M221 309h-191v106h169c10 0 16 6 16 17c0 16 -7 22 -16 22h-168v95h168c10 0 16 8 16 19c0 13 -7 20 -16 20h-169v106h191c65 0 97 -36 97 -100v-46c0 -18 -9 -36 -20 -47c15 -9 23 -29 23 -46v-46c0 -64 -35 -100 -100 -100z" />
    <glyph glyph-name="acute" unicode="&#xb4;" horiz-adv-x="424" 
d="M215 767h-165l113 200h210z" />
    <glyph glyph-name="paragraph" unicode="&#xb6;" horiz-adv-x="847" 
d="M809 -173h-191v705h-109v-705h-192v392h-52c-183 0 -237 54 -237 205v65c0 151 54 205 237 205h544v-867zM317 382v150h-39c-44 0 -60 -14 -60 -53v-43c0 -39 16 -54 60 -54h39z" />
    <glyph glyph-name="periodcentered" unicode="&#xb7;" horiz-adv-x="319" 
d="M290 350c0 -71 -61 -130 -131 -130s-129 59 -129 130c0 70 58 130 129 130s131 -60 131 -130zM203 350c0 24 -19 44 -44 44c-23 0 -43 -20 -43 -44s20 -43 43 -43c25 0 44 19 44 43z" />
    <glyph glyph-name="cedilla" unicode="&#xb8;" horiz-adv-x="307" 
d="M216 -224h-37c-82 0 -128 39 -128 111v44c0 29 28 55 63 55c36 0 65 -26 65 -55v-4c0 -38 3 -40 19 -40h18v-111z" />
    <glyph glyph-name="onesuperior" unicode="&#xb9;" horiz-adv-x="203" 
d="M172 309h-104v262c0 14 -5 17 -17 17h-30v106h53c63 0 98 -36 98 -100v-285z" />
    <glyph glyph-name="ordmasculine" unicode="&#xba;" horiz-adv-x="430" 
d="M212 306c-107 0 -193 84 -193 198c0 115 86 199 193 199s192 -84 192 -199c0 -114 -85 -198 -192 -198zM212 412c48 0 89 33 89 92c0 60 -41 93 -89 93s-88 -33 -88 -93c0 -59 40 -92 88 -92zM212 452c-29 0 -51 24 -51 52c0 30 22 53 51 53c31 0 51 -23 51 -53
c0 -28 -20 -52 -51 -52z" />
    <glyph glyph-name="guillemotright" unicode="&#xbb;" horiz-adv-x="590" 
d="M211 215l-195 -146v197l93 66l-93 65v200l195 -144c33 -23 54 -55 54 -117c0 -65 -21 -96 -54 -121zM506 215l-195 -146v197l93 66l-93 65v200l195 -144c33 -23 54 -55 54 -117c0 -65 -21 -96 -54 -121z" />
    <glyph glyph-name="onequarter" unicode="&#xbc;" horiz-adv-x="793" 
d="M203 309h-104v262c0 14 -5 17 -17 17h-30v106h53c63 0 98 -36 98 -100v-285zM166 0h-132l498 694h131zM759 0h-104v385h104v-385zM639 94h-152v291h105v-187h47v-104z" />
    <glyph glyph-name="onehalf" unicode="&#xbd;" horiz-adv-x="811" 
d="M209 309h-104v262c0 14 -5 17 -17 17h-30v106h53c63 0 98 -36 98 -100v-285zM166 0h-132l498 694h131zM677 140h-191v105h169c8 0 15 8 15 18c0 11 -6 16 -15 16h-169v106h191c65 0 100 -36 100 -100v-46c0 -63 -36 -99 -100 -99zM777 0h-291v106h291v-106z" />
    <glyph glyph-name="threequarters" unicode="&#xbe;" horiz-adv-x="879" 
d="M225 309h-191v106h169c10 0 16 6 16 17c0 16 -7 22 -16 22h-168v95h168c10 0 16 8 16 19c0 13 -7 20 -16 20h-169v106h191c65 0 97 -36 97 -100v-46c0 -18 -9 -36 -20 -47c15 -9 23 -29 23 -46v-46c0 -64 -35 -100 -100 -100zM251 0h-132l498 694h131zM845 0h-104v385
h104v-385zM725 94h-152v291h105v-187h47v-104z" />
    <glyph glyph-name="questiondown" unicode="&#xbf;" horiz-adv-x="559" 
d="M537 -102h-347c-111 0 -174 62 -174 173v87c0 110 64 174 174 174h260v-174h-217c-25 0 -42 -21 -42 -46c0 -27 14 -41 42 -41h304v-173zM379 418c-71 0 -131 61 -131 131s61 130 131 130s129 -60 129 -130s-58 -131 -129 -131zM379 505c23 0 42 19 42 44
c0 23 -19 43 -42 43c-25 0 -44 -20 -44 -43c0 -25 19 -44 44 -44z" />
    <glyph glyph-name="Agrave" unicode="&#xc0;" horiz-adv-x="740" 
d="M726 0h-184l-175 463l-172 -463h-181l259 695h191zM453 0h-170l85 234zM480 767h-165l-158 200h211z" />
    <glyph glyph-name="Aacute" unicode="&#xc1;" horiz-adv-x="740" 
d="M726 0h-184l-175 463l-172 -463h-181l259 695h191zM453 0h-170l85 234zM424 767h-165l113 200h210z" />
    <glyph glyph-name="Acircumflex" unicode="&#xc2;" horiz-adv-x="740" 
d="M726 0h-184l-175 463l-172 -463h-181l259 695h191zM453 0h-170l85 234zM627 732h-196l-63 91l-64 -91h-193l143 190c23 32 55 54 117 54c61 0 92 -23 116 -54z" />
    <glyph glyph-name="Atilde" unicode="&#xc3;" horiz-adv-x="740" 
d="M726 0h-184l-175 463l-172 -463h-181l259 695h191zM453 0h-170l85 234zM620 787h-502v141h502v-141z" />
    <glyph glyph-name="Adieresis" unicode="&#xc4;" horiz-adv-x="740" 
d="M726 0h-184l-175 463l-172 -463h-181l259 695h191zM453 0h-170l85 234zM648 845c0 -71 -61 -130 -131 -130s-129 59 -129 130c0 70 58 131 129 131s131 -61 131 -131zM561 845c0 24 -19 44 -44 44c-23 0 -43 -20 -43 -44s20 -43 43 -43c25 0 44 19 44 43zM352 845
c0 -71 -61 -130 -131 -130s-129 59 -129 130c0 70 58 131 129 131s131 -61 131 -131zM265 845c0 24 -19 44 -44 44c-23 0 -42 -20 -42 -44s19 -43 42 -43c25 0 44 19 44 43z" />
    <glyph glyph-name="Aring" unicode="&#xc5;" horiz-adv-x="740" 
d="M726 0h-184l-175 463l-172 -463h-181l259 695h191zM453 0h-170l85 234zM417 726h-95c-89 0 -116 25 -116 98v53c0 72 27 99 116 99h95c90 0 116 -27 116 -99v-53c0 -73 -26 -98 -116 -98zM437 833v35c0 20 -7 26 -27 26h-82c-20 0 -27 -6 -27 -26v-35c0 -19 7 -27 27 -27
h82c20 0 27 8 27 27z" />
    <glyph glyph-name="AE" unicode="&#xc6;" horiz-adv-x="764" 
d="M731 0h-437v173h-87v-173h-173v520c0 111 63 174 173 174h524v-174h-264v-94h262v-158h-262v-95h264v-173zM294 347v130c0 28 -16 50 -44 50c-29 0 -43 -17 -43 -50v-130h87z" />
    <glyph glyph-name="Ccedilla" unicode="&#xc7;" horiz-adv-x="569" 
d="M554 0h-347c-111 0 -173 62 -173 173v347c0 111 63 174 173 174h347v-174h-287c-49 0 -60 -11 -60 -61v-252c0 -29 5 -34 60 -34h287v-173zM423 -224h-37c-82 0 -128 39 -128 111v44c0 29 28 55 63 55c36 0 65 -26 65 -55v-4c0 -38 3 -40 19 -40h18v-111z" />
    <glyph glyph-name="Egrave" unicode="&#xc8;" 
d="M554 0h-347c-111 0 -173 62 -173 173v87c0 36 19 71 51 86c-27 16 -47 48 -47 88v86c0 111 59 174 169 174h347v-174h-304c-24 0 -42 -18 -42 -50c0 -27 14 -44 42 -44h302v-158h-302c-24 0 -42 -14 -42 -50c0 -27 14 -45 42 -45h304v-173zM434 767h-165l-158 200h211z
" />
    <glyph glyph-name="Eacute" unicode="&#xc9;" 
d="M554 0h-347c-111 0 -173 62 -173 173v87c0 36 19 71 51 86c-27 16 -47 48 -47 88v86c0 111 59 174 169 174h347v-174h-304c-24 0 -42 -18 -42 -50c0 -27 14 -44 42 -44h302v-158h-302c-24 0 -42 -14 -42 -50c0 -27 14 -45 42 -45h304v-173zM388 767h-165l113 200h210z
" />
    <glyph glyph-name="Ecircumflex" unicode="&#xca;" 
d="M554 0h-347c-111 0 -173 62 -173 173v87c0 36 19 71 51 86c-27 16 -47 48 -47 88v86c0 111 59 174 169 174h347v-174h-304c-24 0 -42 -18 -42 -50c0 -27 14 -44 42 -44h302v-158h-302c-24 0 -42 -14 -42 -50c0 -27 14 -45 42 -45h304v-173zM582 732h-196l-63 91l-64 -91
h-193l143 190c23 32 55 54 117 54c61 0 92 -23 116 -54z" />
    <glyph glyph-name="Edieresis" unicode="&#xcb;" 
d="M554 0h-347c-111 0 -173 62 -173 173v87c0 36 19 71 51 86c-27 16 -47 48 -47 88v86c0 111 59 174 169 174h347v-174h-304c-24 0 -42 -18 -42 -50c0 -27 14 -44 42 -44h302v-158h-302c-24 0 -42 -14 -42 -50c0 -27 14 -45 42 -45h304v-173zM603 845
c0 -71 -61 -130 -131 -130s-129 59 -129 130c0 70 58 131 129 131s131 -61 131 -131zM516 845c0 24 -19 44 -44 44c-23 0 -43 -20 -43 -44s20 -43 43 -43c25 0 44 19 44 43zM307 845c0 -71 -61 -130 -131 -130s-129 59 -129 130c0 70 58 131 129 131s131 -61 131 -131z
M220 845c0 24 -19 44 -44 44c-23 0 -42 -20 -42 -44s19 -43 42 -43c25 0 44 19 44 43z" />
    <glyph glyph-name="Igrave" unicode="&#xcc;" horiz-adv-x="392" 
d="M369 0h-347v173h87v347h-87v174h347v-174h-86v-347h86v-173zM307 767h-165l-158 200h211z" />
    <glyph glyph-name="Iacute" unicode="&#xcd;" horiz-adv-x="392" 
d="M369 0h-347v173h87v347h-87v174h347v-174h-86v-347h86v-173zM250 767h-165l113 200h210z" />
    <glyph glyph-name="Icircumflex" unicode="&#xce;" horiz-adv-x="437" 
d="M391 0h-347v173h87v347h-87v174h347v-174h-86v-347h86v-173zM476 732h-196l-63 91l-64 -91h-193l143 190c23 32 55 54 117 54c61 0 92 -23 116 -54z" />
    <glyph glyph-name="Idieresis" unicode="&#xcf;" horiz-adv-x="479" 
d="M412 0h-347v173h87v347h-87v174h347v-174h-86v-347h86v-173zM517 845c0 -71 -61 -130 -131 -130s-129 59 -129 130c0 70 58 131 129 131s131 -61 131 -131zM430 845c0 24 -19 44 -44 44c-23 0 -43 -20 -43 -44s20 -43 43 -43c25 0 44 19 44 43zM221 845
c0 -71 -61 -130 -131 -130s-129 59 -129 130c0 70 58 131 129 131s131 -61 131 -131zM134 845c0 24 -19 44 -44 44c-23 0 -42 -20 -42 -44s19 -43 42 -43c25 0 44 19 44 43z" />
    <glyph glyph-name="Eth" unicode="&#xd0;" horiz-adv-x="630" 
d="M414 0h-347v173h286c55 0 61 5 61 34v252c0 50 -11 61 -61 61h-112v-91h36v-173h-247v173h37v265h347c109 0 174 -63 174 -174v-347c0 -111 -62 -173 -174 -173z" />
    <glyph glyph-name="Ntilde" unicode="&#xd1;" horiz-adv-x="593" 
d="M559 0h-173v468c0 40 -10 52 -45 52h-134v-520h-173v694h352c110 0 173 -63 173 -174v-520zM538 787h-502v141h502v-141z" />
    <glyph glyph-name="Ograve" unicode="&#xd2;" horiz-adv-x="724" 
d="M362 -10c-194 0 -347 150 -347 357s153 357 347 357s347 -150 347 -357s-153 -357 -347 -357zM362 163c95 0 176 66 176 184s-81 184 -176 184s-175 -66 -175 -184s80 -184 175 -184zM362 260c-49 0 -84 39 -84 87s35 87 84 87s85 -39 85 -87s-36 -87 -85 -87zM472 767
h-165l-158 200h211z" />
    <glyph glyph-name="Oacute" unicode="&#xd3;" horiz-adv-x="724" 
d="M362 -10c-194 0 -347 150 -347 357s153 357 347 357s347 -150 347 -357s-153 -357 -347 -357zM362 163c95 0 176 66 176 184s-81 184 -176 184s-175 -66 -175 -184s80 -184 175 -184zM362 260c-49 0 -84 39 -84 87s35 87 84 87s85 -39 85 -87s-36 -87 -85 -87zM416 767
h-165l113 200h210z" />
    <glyph glyph-name="Ocircumflex" unicode="&#xd4;" horiz-adv-x="724" 
d="M362 -10c-194 0 -347 150 -347 357s153 357 347 357s347 -150 347 -357s-153 -357 -347 -357zM362 163c95 0 176 66 176 184s-81 184 -176 184s-175 -66 -175 -184s80 -184 175 -184zM362 260c-49 0 -84 39 -84 87s35 87 84 87s85 -39 85 -87s-36 -87 -85 -87zM620 732
h-196l-63 91l-64 -91h-193l143 190c23 32 55 54 117 54c61 0 92 -23 116 -54z" />
    <glyph glyph-name="Otilde" unicode="&#xd5;" horiz-adv-x="724" 
d="M362 -10c-194 0 -347 150 -347 357s153 357 347 357s347 -150 347 -357s-153 -357 -347 -357zM362 163c95 0 176 66 176 184s-81 184 -176 184s-175 -66 -175 -184s80 -184 175 -184zM362 260c-49 0 -84 39 -84 87s35 87 84 87s85 -39 85 -87s-36 -87 -85 -87zM613 787
h-502v141h502v-141z" />
    <glyph glyph-name="Odieresis" unicode="&#xd6;" horiz-adv-x="724" 
d="M362 -10c-194 0 -347 150 -347 357s153 357 347 357s347 -150 347 -357s-153 -357 -347 -357zM362 163c95 0 176 66 176 184s-81 184 -176 184s-175 -66 -175 -184s80 -184 175 -184zM362 260c-49 0 -84 39 -84 87s35 87 84 87s85 -39 85 -87s-36 -87 -85 -87zM640 845
c0 -71 -61 -130 -131 -130s-129 59 -129 130c0 70 58 131 129 131s131 -61 131 -131zM553 845c0 24 -19 44 -44 44c-23 0 -43 -20 -43 -44s20 -43 43 -43c25 0 44 19 44 43zM344 845c0 -71 -61 -130 -131 -130s-129 59 -129 130c0 70 58 131 129 131s131 -61 131 -131z
M257 845c0 24 -19 44 -44 44c-23 0 -42 -20 -42 -44s19 -43 42 -43c25 0 44 19 44 43z" />
    <glyph glyph-name="multiply" unicode="&#xd7;" horiz-adv-x="610" 
d="M532 224l-102 -101l-125 125l-125 -126l-102 102l125 126l-124 124l102 103l123 -125l126 125l102 -103l-125 -124z" />
    <glyph glyph-name="Oslash" unicode="&#xd8;" horiz-adv-x="724" 
d="M362 -10c-194 0 -347 150 -347 357s153 357 347 357s347 -150 347 -357s-153 -357 -347 -357zM205 257l74 74c-1 5 -1 10 -1 16c0 48 35 87 84 87c6 0 12 -1 18 -2l74 74c-26 16 -58 25 -92 25c-95 0 -175 -66 -175 -184c0 -35 7 -64 18 -90zM346 261l-75 -74
c27 -16 58 -24 91 -24c95 0 176 66 176 184c0 34 -7 62 -19 88l-73 -74c0 -5 1 -10 1 -14c0 -48 -36 -87 -85 -87c-6 0 -11 0 -16 1z" />
    <glyph glyph-name="Ugrave" unicode="&#xd9;" 
d="M381 0h-174c-109 0 -173 63 -173 173v521h173v-460c0 -49 11 -61 61 -61h52c49 0 61 12 61 61v460h173v-521c0 -110 -63 -173 -173 -173zM404 767h-165l-158 200h211z" />
    <glyph glyph-name="Uacute" unicode="&#xda;" 
d="M381 0h-174c-109 0 -173 63 -173 173v521h173v-460c0 -49 11 -61 61 -61h52c49 0 61 12 61 61v460h173v-521c0 -110 -63 -173 -173 -173zM348 767h-165l113 200h210z" />
    <glyph glyph-name="Ucircumflex" unicode="&#xdb;" 
d="M381 0h-174c-109 0 -173 63 -173 173v521h173v-460c0 -49 11 -61 61 -61h52c49 0 61 12 61 61v460h173v-521c0 -110 -63 -173 -173 -173zM552 732h-196l-63 91l-64 -91h-193l143 190c23 32 55 54 117 54c61 0 92 -23 116 -54z" />
    <glyph glyph-name="Udieresis" unicode="&#xdc;" 
d="M381 0h-174c-109 0 -173 63 -173 173v521h173v-460c0 -49 11 -61 61 -61h52c49 0 61 12 61 61v460h173v-521c0 -110 -63 -173 -173 -173zM573 845c0 -71 -61 -130 -131 -130s-129 59 -129 130c0 70 58 131 129 131s131 -61 131 -131zM486 845c0 24 -19 44 -44 44
c-23 0 -43 -20 -43 -44s20 -43 43 -43c25 0 44 19 44 43zM277 845c0 -71 -61 -130 -131 -130s-129 59 -129 130c0 70 58 131 129 131s131 -61 131 -131zM190 845c0 24 -19 44 -44 44c-23 0 -42 -20 -42 -44s19 -43 42 -43c25 0 44 19 44 43z" />
    <glyph glyph-name="Yacute" unicode="&#xdd;" horiz-adv-x="562" 
d="M367 260h-173c-111 0 -174 62 -174 174v260h174v-200c0 -55 4 -60 34 -60h79c49 0 60 11 60 60v200h174v-260c0 -110 -63 -174 -174 -174zM367 0h-173v173h173v-173zM335 767h-165l113 200h210z" />
    <glyph glyph-name="Thorn" unicode="&#xde;" horiz-adv-x="573" 
d="M207 0h-173v694h174v-127c27 10 55 15 86 15c140 0 260 -109 260 -261s-117 -260 -260 -260c-30 0 -59 5 -87 16v-77zM381 321c0 55 -39 87 -87 87c-49 0 -87 -32 -87 -87c0 -54 38 -86 87 -86c48 0 87 32 87 86z" />
    <glyph glyph-name="germandbls" unicode="&#xdf;" horiz-adv-x="644" 
d="M442 0h-134v173h91c28 0 42 14 42 41c0 25 -18 46 -42 46h-90v200c0 46 -10 58 -52 60c-41 -2 -50 -15 -50 -60v-460h-173v520c0 111 64 174 173 174h102c110 0 174 -63 174 -174v-89c84 -15 132 -75 132 -171v-87c0 -111 -62 -173 -173 -173z" />
    <glyph glyph-name="agrave" unicode="&#xe0;" horiz-adv-x="740" 
d="M726 0h-184l-175 463l-172 -463h-181l259 695h191zM453 0h-170l85 234zM480 767h-165l-158 200h211z" />
    <glyph glyph-name="aacute" unicode="&#xe1;" horiz-adv-x="740" 
d="M726 0h-184l-175 463l-172 -463h-181l259 695h191zM453 0h-170l85 234zM424 767h-165l113 200h210z" />
    <glyph glyph-name="acircumflex" unicode="&#xe2;" horiz-adv-x="740" 
d="M726 0h-184l-175 463l-172 -463h-181l259 695h191zM453 0h-170l85 234zM627 732h-196l-63 91l-64 -91h-193l143 190c23 32 55 54 117 54c61 0 92 -23 116 -54z" />
    <glyph glyph-name="atilde" unicode="&#xe3;" horiz-adv-x="740" 
d="M726 0h-184l-175 463l-172 -463h-181l259 695h191zM453 0h-170l85 234zM620 787h-502v141h502v-141z" />
    <glyph glyph-name="adieresis" unicode="&#xe4;" horiz-adv-x="740" 
d="M726 0h-184l-175 463l-172 -463h-181l259 695h191zM453 0h-170l85 234zM648 845c0 -71 -61 -130 -131 -130s-129 59 -129 130c0 70 58 131 129 131s131 -61 131 -131zM561 845c0 24 -19 44 -44 44c-23 0 -43 -20 -43 -44s20 -43 43 -43c25 0 44 19 44 43zM352 845
c0 -71 -61 -130 -131 -130s-129 59 -129 130c0 70 58 131 129 131s131 -61 131 -131zM265 845c0 24 -19 44 -44 44c-23 0 -42 -20 -42 -44s19 -43 42 -43c25 0 44 19 44 43z" />
    <glyph glyph-name="aring" unicode="&#xe5;" horiz-adv-x="740" 
d="M726 0h-184l-175 463l-172 -463h-181l259 695h191zM453 0h-170l85 234zM417 726h-95c-89 0 -116 25 -116 98v53c0 72 27 99 116 99h95c90 0 116 -27 116 -99v-53c0 -73 -26 -98 -116 -98zM437 833v35c0 20 -7 26 -27 26h-82c-20 0 -27 -6 -27 -26v-35c0 -19 7 -27 27 -27
h82c20 0 27 8 27 27z" />
    <glyph glyph-name="ae" unicode="&#xe6;" horiz-adv-x="764" 
d="M731 0h-437v173h-87v-173h-173v520c0 111 63 174 173 174h524v-174h-264v-94h262v-158h-262v-95h264v-173zM294 347v130c0 28 -16 50 -44 50c-29 0 -43 -17 -43 -50v-130h87z" />
    <glyph glyph-name="ccedilla" unicode="&#xe7;" horiz-adv-x="569" 
d="M554 0h-347c-111 0 -173 62 -173 173v347c0 111 63 174 173 174h347v-174h-287c-49 0 -60 -11 -60 -61v-252c0 -29 5 -34 60 -34h287v-173zM423 -224h-37c-82 0 -128 39 -128 111v44c0 29 28 55 63 55c36 0 65 -26 65 -55v-4c0 -38 3 -40 19 -40h18v-111z" />
    <glyph glyph-name="egrave" unicode="&#xe8;" 
d="M554 0h-347c-111 0 -173 62 -173 173v87c0 36 19 71 51 86c-27 16 -47 48 -47 88v86c0 111 59 174 169 174h347v-174h-304c-24 0 -42 -18 -42 -50c0 -27 14 -44 42 -44h302v-158h-302c-24 0 -42 -14 -42 -50c0 -27 14 -45 42 -45h304v-173zM434 767h-165l-158 200h211z
" />
    <glyph glyph-name="eacute" unicode="&#xe9;" 
d="M554 0h-347c-111 0 -173 62 -173 173v87c0 36 19 71 51 86c-27 16 -47 48 -47 88v86c0 111 59 174 169 174h347v-174h-304c-24 0 -42 -18 -42 -50c0 -27 14 -44 42 -44h302v-158h-302c-24 0 -42 -14 -42 -50c0 -27 14 -45 42 -45h304v-173zM388 767h-165l113 200h210z
" />
    <glyph glyph-name="ecircumflex" unicode="&#xea;" 
d="M554 0h-347c-111 0 -173 62 -173 173v87c0 36 19 71 51 86c-27 16 -47 48 -47 88v86c0 111 59 174 169 174h347v-174h-304c-24 0 -42 -18 -42 -50c0 -27 14 -44 42 -44h302v-158h-302c-24 0 -42 -14 -42 -50c0 -27 14 -45 42 -45h304v-173zM582 732h-196l-63 91l-64 -91
h-193l143 190c23 32 55 54 117 54c61 0 92 -23 116 -54z" />
    <glyph glyph-name="edieresis" unicode="&#xeb;" 
d="M554 0h-347c-111 0 -173 62 -173 173v87c0 36 19 71 51 86c-27 16 -47 48 -47 88v86c0 111 59 174 169 174h347v-174h-304c-24 0 -42 -18 -42 -50c0 -27 14 -44 42 -44h302v-158h-302c-24 0 -42 -14 -42 -50c0 -27 14 -45 42 -45h304v-173zM603 845
c0 -71 -61 -130 -131 -130s-129 59 -129 130c0 70 58 131 129 131s131 -61 131 -131zM516 845c0 24 -19 44 -44 44c-23 0 -43 -20 -43 -44s20 -43 43 -43c25 0 44 19 44 43zM307 845c0 -71 -61 -130 -131 -130s-129 59 -129 130c0 70 58 131 129 131s131 -61 131 -131z
M220 845c0 24 -19 44 -44 44c-23 0 -42 -20 -42 -44s19 -43 42 -43c25 0 44 19 44 43z" />
    <glyph glyph-name="igrave" unicode="&#xec;" horiz-adv-x="392" 
d="M369 0h-347v173h87v347h-87v174h347v-174h-86v-347h86v-173zM307 767h-165l-158 200h211z" />
    <glyph glyph-name="iacute" unicode="&#xed;" horiz-adv-x="392" 
d="M369 0h-347v173h87v347h-87v174h347v-174h-86v-347h86v-173zM250 767h-165l113 200h210z" />
    <glyph glyph-name="icircumflex" unicode="&#xee;" horiz-adv-x="437" 
d="M391 0h-347v173h87v347h-87v174h347v-174h-86v-347h86v-173zM476 732h-196l-63 91l-64 -91h-193l143 190c23 32 55 54 117 54c61 0 92 -23 116 -54z" />
    <glyph glyph-name="idieresis" unicode="&#xef;" horiz-adv-x="479" 
d="M412 0h-347v173h87v347h-87v174h347v-174h-86v-347h86v-173zM517 845c0 -71 -61 -130 -131 -130s-129 59 -129 130c0 70 58 131 129 131s131 -61 131 -131zM430 845c0 24 -19 44 -44 44c-23 0 -43 -20 -43 -44s20 -43 43 -43c25 0 44 19 44 43zM221 845
c0 -71 -61 -130 -131 -130s-129 59 -129 130c0 70 58 131 129 131s131 -61 131 -131zM134 845c0 24 -19 44 -44 44c-23 0 -42 -20 -42 -44s19 -43 42 -43c25 0 44 19 44 43z" />
    <glyph glyph-name="eth" unicode="&#xf0;" horiz-adv-x="630" 
d="M414 0h-347v173h286c55 0 61 5 61 34v252c0 50 -11 61 -61 61h-112v-91h36v-173h-247v173h37v265h347c109 0 174 -63 174 -174v-347c0 -111 -62 -173 -174 -173z" />
    <glyph glyph-name="ntilde" unicode="&#xf1;" horiz-adv-x="593" 
d="M559 0h-173v468c0 40 -10 52 -45 52h-134v-520h-173v694h352c110 0 173 -63 173 -174v-520zM538 787h-502v141h502v-141z" />
    <glyph glyph-name="ograve" unicode="&#xf2;" horiz-adv-x="724" 
d="M362 -10c-194 0 -347 150 -347 357s153 357 347 357s347 -150 347 -357s-153 -357 -347 -357zM362 163c95 0 176 66 176 184s-81 184 -176 184s-175 -66 -175 -184s80 -184 175 -184zM362 260c-49 0 -84 39 -84 87s35 87 84 87s85 -39 85 -87s-36 -87 -85 -87zM472 767
h-165l-158 200h211z" />
    <glyph glyph-name="oacute" unicode="&#xf3;" horiz-adv-x="724" 
d="M362 -10c-194 0 -347 150 -347 357s153 357 347 357s347 -150 347 -357s-153 -357 -347 -357zM362 163c95 0 176 66 176 184s-81 184 -176 184s-175 -66 -175 -184s80 -184 175 -184zM362 260c-49 0 -84 39 -84 87s35 87 84 87s85 -39 85 -87s-36 -87 -85 -87zM416 767
h-165l113 200h210z" />
    <glyph glyph-name="ocircumflex" unicode="&#xf4;" horiz-adv-x="724" 
d="M362 -10c-194 0 -347 150 -347 357s153 357 347 357s347 -150 347 -357s-153 -357 -347 -357zM362 163c95 0 176 66 176 184s-81 184 -176 184s-175 -66 -175 -184s80 -184 175 -184zM362 260c-49 0 -84 39 -84 87s35 87 84 87s85 -39 85 -87s-36 -87 -85 -87zM620 732
h-196l-63 91l-64 -91h-193l143 190c23 32 55 54 117 54c61 0 92 -23 116 -54z" />
    <glyph glyph-name="otilde" unicode="&#xf5;" horiz-adv-x="724" 
d="M362 -10c-194 0 -347 150 -347 357s153 357 347 357s347 -150 347 -357s-153 -357 -347 -357zM362 163c95 0 176 66 176 184s-81 184 -176 184s-175 -66 -175 -184s80 -184 175 -184zM362 260c-49 0 -84 39 -84 87s35 87 84 87s85 -39 85 -87s-36 -87 -85 -87zM613 787
h-502v141h502v-141z" />
    <glyph glyph-name="odieresis" unicode="&#xf6;" horiz-adv-x="724" 
d="M362 -10c-194 0 -347 150 -347 357s153 357 347 357s347 -150 347 -357s-153 -357 -347 -357zM362 163c95 0 176 66 176 184s-81 184 -176 184s-175 -66 -175 -184s80 -184 175 -184zM362 260c-49 0 -84 39 -84 87s35 87 84 87s85 -39 85 -87s-36 -87 -85 -87zM640 845
c0 -71 -61 -130 -131 -130s-129 59 -129 130c0 70 58 131 129 131s131 -61 131 -131zM553 845c0 24 -19 44 -44 44c-23 0 -43 -20 -43 -44s20 -43 43 -43c25 0 44 19 44 43zM344 845c0 -71 -61 -130 -131 -130s-129 59 -129 130c0 70 58 131 129 131s131 -61 131 -131z
M257 845c0 24 -19 44 -44 44c-23 0 -42 -20 -42 -44s19 -43 42 -43c25 0 44 19 44 43z" />
    <glyph glyph-name="divide" unicode="&#xf7;" horiz-adv-x="610" 
d="M554 278h-498v144h498v-144zM435 575c0 -71 -61 -130 -131 -130s-129 59 -129 130c0 70 58 130 129 130s131 -60 131 -130zM348 575c0 24 -19 44 -44 44c-23 0 -43 -20 -43 -44s20 -43 43 -43c25 0 44 19 44 43zM435 120c0 -71 -61 -130 -131 -130s-129 59 -129 130
c0 70 58 130 129 130s131 -60 131 -130zM348 120c0 24 -19 44 -44 44c-23 0 -43 -20 -43 -44s20 -43 43 -43c25 0 44 19 44 43z" />
    <glyph glyph-name="oslash" unicode="&#xf8;" horiz-adv-x="724" 
d="M362 -10c-194 0 -347 150 -347 357s153 357 347 357s347 -150 347 -357s-153 -357 -347 -357zM205 257l74 74c-1 5 -1 10 -1 16c0 48 35 87 84 87c6 0 12 -1 18 -2l74 74c-26 16 -58 25 -92 25c-95 0 -175 -66 -175 -184c0 -35 7 -64 18 -90zM346 261l-75 -74
c27 -16 58 -24 91 -24c95 0 176 66 176 184c0 34 -7 62 -19 88l-73 -74c0 -5 1 -10 1 -14c0 -48 -36 -87 -85 -87c-6 0 -11 0 -16 1z" />
    <glyph glyph-name="ugrave" unicode="&#xf9;" 
d="M381 0h-174c-109 0 -173 63 -173 173v521h173v-460c0 -49 11 -61 61 -61h52c49 0 61 12 61 61v460h173v-521c0 -110 -63 -173 -173 -173zM404 767h-165l-158 200h211z" />
    <glyph glyph-name="uacute" unicode="&#xfa;" 
d="M381 0h-174c-109 0 -173 63 -173 173v521h173v-460c0 -49 11 -61 61 -61h52c49 0 61 12 61 61v460h173v-521c0 -110 -63 -173 -173 -173zM348 767h-165l113 200h210z" />
    <glyph glyph-name="ucircumflex" unicode="&#xfb;" 
d="M381 0h-174c-109 0 -173 63 -173 173v521h173v-460c0 -49 11 -61 61 -61h52c49 0 61 12 61 61v460h173v-521c0 -110 -63 -173 -173 -173zM552 732h-196l-63 91l-64 -91h-193l143 190c23 32 55 54 117 54c61 0 92 -23 116 -54z" />
    <glyph glyph-name="udieresis" unicode="&#xfc;" 
d="M381 0h-174c-109 0 -173 63 -173 173v521h173v-460c0 -49 11 -61 61 -61h52c49 0 61 12 61 61v460h173v-521c0 -110 -63 -173 -173 -173zM573 845c0 -71 -61 -130 -131 -130s-129 59 -129 130c0 70 58 131 129 131s131 -61 131 -131zM486 845c0 24 -19 44 -44 44
c-23 0 -43 -20 -43 -44s20 -43 43 -43c25 0 44 19 44 43zM277 845c0 -71 -61 -130 -131 -130s-129 59 -129 130c0 70 58 131 129 131s131 -61 131 -131zM190 845c0 24 -19 44 -44 44c-23 0 -42 -20 -42 -44s19 -43 42 -43c25 0 44 19 44 43z" />
    <glyph glyph-name="yacute" unicode="&#xfd;" horiz-adv-x="562" 
d="M367 260h-173c-111 0 -174 62 -174 174v260h174v-200c0 -55 4 -60 34 -60h79c49 0 60 11 60 60v200h174v-260c0 -110 -63 -174 -174 -174zM367 0h-173v173h173v-173zM335 767h-165l113 200h210z" />
    <glyph glyph-name="thorn" unicode="&#xfe;" horiz-adv-x="573" 
d="M207 0h-173v694h174v-127c27 10 55 15 86 15c140 0 260 -109 260 -261s-117 -260 -260 -260c-30 0 -59 5 -87 16v-77zM381 321c0 55 -39 87 -87 87c-49 0 -87 -32 -87 -87c0 -54 38 -86 87 -86c48 0 87 32 87 86z" />
    <glyph glyph-name="ydieresis" unicode="&#xff;" horiz-adv-x="562" 
d="M367 260h-173c-111 0 -174 62 -174 174v260h174v-200c0 -55 4 -60 34 -60h79c49 0 60 11 60 60v200h174v-260c0 -110 -63 -174 -174 -174zM367 0h-173v173h173v-173zM559 845c0 -71 -61 -130 -131 -130s-129 59 -129 130c0 70 58 131 129 131s131 -61 131 -131zM472 845
c0 24 -19 44 -44 44c-23 0 -43 -20 -43 -44s20 -43 43 -43c25 0 44 19 44 43zM263 845c0 -71 -61 -130 -131 -130s-129 59 -129 130c0 70 58 131 129 131s131 -61 131 -131zM176 845c0 24 -19 44 -44 44c-23 0 -42 -20 -42 -44s19 -43 42 -43c25 0 44 19 44 43z" />
    <glyph glyph-name="Amacron" unicode="&#x100;" horiz-adv-x="740" 
d="M726 0h-184l-175 463l-172 -463h-181l259 695h191zM453 0h-170l85 234zM620 787h-502v141h502v-141z" />
    <glyph glyph-name="amacron" unicode="&#x101;" horiz-adv-x="740" 
d="M726 0h-184l-175 463l-172 -463h-181l259 695h191zM453 0h-170l85 234zM620 787h-502v141h502v-141z" />
    <glyph glyph-name="Abreve" unicode="&#x102;" horiz-adv-x="740" 
d="M726 0h-184l-175 463l-172 -463h-181l259 695h191zM453 0h-170l85 234zM410 780h-80c-134 0 -174 38 -174 149v47h143v-35c0 -29 11 -39 43 -39h57c33 0 42 10 42 39v35h143v-47c0 -111 -39 -149 -174 -149z" />
    <glyph glyph-name="abreve" unicode="&#x103;" horiz-adv-x="740" 
d="M726 0h-184l-175 463l-172 -463h-181l259 695h191zM453 0h-170l85 234zM410 780h-80c-134 0 -174 38 -174 149v47h143v-35c0 -29 11 -39 43 -39h57c33 0 42 10 42 39v35h143v-47c0 -111 -39 -149 -174 -149z" />
    <glyph glyph-name="Aogonek" unicode="&#x104;" horiz-adv-x="740" 
d="M726 -224h-186c-62 0 -89 34 -89 90v26c0 51 32 91 93 104l-177 467l-172 -463h-181l259 695h191l262 -695c-89 -10 -105 -30 -105 -42v-7c0 -12 6 -18 17 -18h88v-157zM453 0h-170l85 234z" />
    <glyph glyph-name="aogonek" unicode="&#x105;" horiz-adv-x="740" 
d="M726 -224h-186c-62 0 -89 34 -89 90v26c0 51 32 91 93 104l-177 467l-172 -463h-181l259 695h191l262 -695c-89 -10 -105 -30 -105 -42v-7c0 -12 6 -18 17 -18h88v-157zM453 0h-170l85 234z" />
    <glyph glyph-name="Cacute" unicode="&#x106;" horiz-adv-x="569" 
d="M554 0h-347c-111 0 -173 62 -173 173v347c0 111 63 174 173 174h347v-174h-287c-49 0 -60 -11 -60 -61v-252c0 -29 5 -34 60 -34h287v-173zM379 767h-165l113 200h210z" />
    <glyph glyph-name="cacute" unicode="&#x107;" horiz-adv-x="569" 
d="M554 0h-347c-111 0 -173 62 -173 173v347c0 111 63 174 173 174h347v-174h-287c-49 0 -60 -11 -60 -61v-252c0 -29 5 -34 60 -34h287v-173zM379 767h-165l113 200h210z" />
    <glyph glyph-name="Cdotaccent" unicode="&#x10a;" horiz-adv-x="569" 
d="M554 0h-347c-111 0 -173 62 -173 173v347c0 111 63 174 173 174h347v-174h-287c-49 0 -60 -11 -60 -61v-252c0 -29 5 -34 60 -34h287v-173zM455 845c0 -71 -61 -130 -131 -130s-129 59 -129 130c0 70 58 131 129 131s131 -61 131 -131zM368 845c0 24 -19 44 -44 44
c-23 0 -42 -20 -42 -44s19 -43 42 -43c25 0 44 19 44 43z" />
    <glyph glyph-name="cdotaccent" unicode="&#x10b;" horiz-adv-x="569" 
d="M554 0h-347c-111 0 -173 62 -173 173v347c0 111 63 174 173 174h347v-174h-287c-49 0 -60 -11 -60 -61v-252c0 -29 5 -34 60 -34h287v-173zM455 845c0 -71 -61 -130 -131 -130s-129 59 -129 130c0 70 58 131 129 131s131 -61 131 -131zM368 845c0 24 -19 44 -44 44
c-23 0 -42 -20 -42 -44s19 -43 42 -43c25 0 44 19 44 43z" />
    <glyph glyph-name="Ccaron" unicode="&#x10c;" horiz-adv-x="569" 
d="M554 0h-347c-111 0 -173 62 -173 173v347c0 111 63 174 173 174h347v-174h-287c-49 0 -60 -11 -60 -61v-252c0 -29 5 -34 60 -34h287v-173zM583 976l-143 -191c-24 -32 -54 -53 -116 -53s-92 21 -115 53l-142 191h197l63 -92l63 92h193z" />
    <glyph glyph-name="ccaron" unicode="&#x10d;" horiz-adv-x="569" 
d="M554 0h-347c-111 0 -173 62 -173 173v347c0 111 63 174 173 174h347v-174h-287c-49 0 -60 -11 -60 -61v-252c0 -29 5 -34 60 -34h287v-173zM583 976l-143 -191c-24 -32 -54 -53 -116 -53s-92 21 -115 53l-142 191h197l63 -92l63 92h193z" />
    <glyph glyph-name="Dcaron" unicode="&#x10e;" horiz-adv-x="585" 
d="M379 0h-347v173h299c43 0 48 8 48 34v252c0 50 -12 61 -61 61h-113v-260h-173v434h347c110 0 173 -63 173 -174v-347c0 -111 -62 -173 -173 -173zM530 976l-143 -191c-24 -32 -54 -53 -116 -53s-92 21 -115 53l-142 191h197l63 -92l63 92h193z" />
    <glyph glyph-name="dcaron" unicode="&#x10f;" horiz-adv-x="585" 
d="M379 0h-347v173h299c43 0 48 8 48 34v252c0 50 -12 61 -61 61h-113v-260h-173v434h347c110 0 173 -63 173 -174v-347c0 -111 -62 -173 -173 -173zM530 976l-143 -191c-24 -32 -54 -53 -116 -53s-92 21 -115 53l-142 191h197l63 -92l63 92h193z" />
    <glyph glyph-name="Dcroat" unicode="&#x110;" horiz-adv-x="630" 
d="M414 0h-347v173h286c55 0 61 5 61 34v252c0 50 -11 61 -61 61h-112v-91h36v-173h-247v173h37v265h347c109 0 174 -63 174 -174v-347c0 -111 -62 -173 -174 -173z" />
    <glyph glyph-name="dcroat" unicode="&#x111;" horiz-adv-x="630" 
d="M414 0h-347v173h286c55 0 61 5 61 34v252c0 50 -11 61 -61 61h-112v-91h36v-173h-247v173h37v265h347c109 0 174 -63 174 -174v-347c0 -111 -62 -173 -174 -173z" />
    <glyph glyph-name="Emacron" unicode="&#x112;" 
d="M554 0h-347c-111 0 -173 62 -173 173v87c0 36 19 71 51 86c-27 16 -47 48 -47 88v86c0 111 59 174 169 174h347v-174h-304c-24 0 -42 -18 -42 -50c0 -27 14 -44 42 -44h302v-158h-302c-24 0 -42 -14 -42 -50c0 -27 14 -45 42 -45h304v-173zM557 787h-502v141h502v-141z
" />
    <glyph glyph-name="emacron" unicode="&#x113;" 
d="M554 0h-347c-111 0 -173 62 -173 173v87c0 36 19 71 51 86c-27 16 -47 48 -47 88v86c0 111 59 174 169 174h347v-174h-304c-24 0 -42 -18 -42 -50c0 -27 14 -44 42 -44h302v-158h-302c-24 0 -42 -14 -42 -50c0 -27 14 -45 42 -45h304v-173zM557 787h-502v141h502v-141z
" />
    <glyph glyph-name="Ebreve" unicode="&#x114;" 
d="M554 0h-347c-111 0 -173 62 -173 173v87c0 36 19 71 51 86c-27 16 -47 48 -47 88v86c0 111 59 174 169 174h347v-174h-304c-24 0 -42 -18 -42 -50c0 -27 14 -44 42 -44h302v-158h-302c-24 0 -42 -14 -42 -50c0 -27 14 -45 42 -45h304v-173zM364 780h-80
c-134 0 -174 38 -174 149v47h143v-35c0 -29 11 -39 43 -39h57c33 0 42 10 42 39v35h143v-47c0 -111 -39 -149 -174 -149z" />
    <glyph glyph-name="ebreve" unicode="&#x115;" 
d="M554 0h-347c-111 0 -173 62 -173 173v87c0 36 19 71 51 86c-27 16 -47 48 -47 88v86c0 111 59 174 169 174h347v-174h-304c-24 0 -42 -18 -42 -50c0 -27 14 -44 42 -44h302v-158h-302c-24 0 -42 -14 -42 -50c0 -27 14 -45 42 -45h304v-173zM364 780h-80
c-134 0 -174 38 -174 149v47h143v-35c0 -29 11 -39 43 -39h57c33 0 42 10 42 39v35h143v-47c0 -111 -39 -149 -174 -149z" />
    <glyph glyph-name="Edotaccent" unicode="&#x116;" 
d="M554 0h-347c-111 0 -173 62 -173 173v87c0 36 19 71 51 86c-27 16 -47 48 -47 88v86c0 111 59 174 169 174h347v-174h-304c-24 0 -42 -18 -42 -50c0 -27 14 -44 42 -44h302v-158h-302c-24 0 -42 -14 -42 -50c0 -27 14 -45 42 -45h304v-173zM454 845
c0 -71 -61 -130 -131 -130s-129 59 -129 130c0 70 58 131 129 131s131 -61 131 -131zM367 845c0 24 -19 44 -44 44c-23 0 -42 -20 -42 -44s19 -43 42 -43c25 0 44 19 44 43z" />
    <glyph glyph-name="edotaccent" unicode="&#x117;" 
d="M554 0h-347c-111 0 -173 62 -173 173v87c0 36 19 71 51 86c-27 16 -47 48 -47 88v86c0 111 59 174 169 174h347v-174h-304c-24 0 -42 -18 -42 -50c0 -27 14 -44 42 -44h302v-158h-302c-24 0 -42 -14 -42 -50c0 -27 14 -45 42 -45h304v-173zM454 845
c0 -71 -61 -130 -131 -130s-129 59 -129 130c0 70 58 131 129 131s131 -61 131 -131zM367 845c0 24 -19 44 -44 44c-23 0 -42 -20 -42 -44s19 -43 42 -43c25 0 44 19 44 43z" />
    <glyph glyph-name="Eogonek" unicode="&#x118;" 
d="M554 -224h-186c-62 0 -88 34 -88 90v26c0 58 41 101 119 108h-192c-111 0 -173 62 -173 173v87c0 36 19 71 51 86c-27 16 -47 48 -47 88v86c0 111 59 174 169 174h347v-174h-304c-24 0 -42 -18 -42 -50c0 -27 14 -44 42 -44h302v-158h-302c-24 0 -42 -14 -42 -50
c0 -27 14 -45 42 -45h304v-173h-43c-48 -16 -61 -30 -61 -42v-7c0 -12 5 -18 16 -18h88v-157z" />
    <glyph glyph-name="eogonek" unicode="&#x119;" 
d="M554 -224h-186c-62 0 -88 34 -88 90v26c0 58 41 101 119 108h-192c-111 0 -173 62 -173 173v87c0 36 19 71 51 86c-27 16 -47 48 -47 88v86c0 111 59 174 169 174h347v-174h-304c-24 0 -42 -18 -42 -50c0 -27 14 -44 42 -44h302v-158h-302c-24 0 -42 -14 -42 -50
c0 -27 14 -45 42 -45h304v-173h-43c-48 -16 -61 -30 -61 -42v-7c0 -12 5 -18 16 -18h88v-157z" />
    <glyph glyph-name="Ecaron" unicode="&#x11a;" 
d="M554 0h-347c-111 0 -173 62 -173 173v87c0 36 19 71 51 86c-27 16 -47 48 -47 88v86c0 111 59 174 169 174h347v-174h-304c-24 0 -42 -18 -42 -50c0 -27 14 -44 42 -44h302v-158h-302c-24 0 -42 -14 -42 -50c0 -27 14 -45 42 -45h304v-173zM582 976l-143 -191
c-24 -32 -54 -53 -116 -53s-92 21 -115 53l-142 191h197l63 -92l63 92h193z" />
    <glyph glyph-name="ecaron" unicode="&#x11b;" 
d="M554 0h-347c-111 0 -173 62 -173 173v87c0 36 19 71 51 86c-27 16 -47 48 -47 88v86c0 111 59 174 169 174h347v-174h-304c-24 0 -42 -18 -42 -50c0 -27 14 -44 42 -44h302v-158h-302c-24 0 -42 -14 -42 -50c0 -27 14 -45 42 -45h304v-173zM582 976l-143 -191
c-24 -32 -54 -53 -116 -53s-92 21 -115 53l-142 191h197l63 -92l63 92h193z" />
    <glyph glyph-name="Gbreve" unicode="&#x11e;" 
d="M554 0h-347c-113 0 -173 62 -173 173v347c0 111 63 174 173 174h344v-174h-284c-49 0 -60 -11 -61 -61v-252c0 -28 5 -34 61 -34h114v261h173v-434zM354 780h-80c-134 0 -174 38 -174 149v47h143v-35c0 -29 11 -39 43 -39h57c33 0 42 10 42 39v35h143v-47
c0 -111 -39 -149 -174 -149z" />
    <glyph glyph-name="gbreve" unicode="&#x11f;" 
d="M554 0h-347c-113 0 -173 62 -173 173v347c0 111 63 174 173 174h344v-174h-284c-49 0 -60 -11 -61 -61v-252c0 -28 5 -34 61 -34h114v261h173v-434zM354 780h-80c-134 0 -174 38 -174 149v47h143v-35c0 -29 11 -39 43 -39h57c33 0 42 10 42 39v35h143v-47
c0 -111 -39 -149 -174 -149z" />
    <glyph glyph-name="Gdotaccent" unicode="&#x120;" 
d="M554 0h-347c-113 0 -173 62 -173 173v347c0 111 63 174 173 174h344v-174h-284c-49 0 -60 -11 -61 -61v-252c0 -28 5 -34 61 -34h114v261h173v-434zM444 845c0 -71 -61 -130 -131 -130s-129 59 -129 130c0 70 58 131 129 131s131 -61 131 -131zM357 845
c0 24 -19 44 -44 44c-23 0 -42 -20 -42 -44s19 -43 42 -43c25 0 44 19 44 43z" />
    <glyph glyph-name="gdotaccent" unicode="&#x121;" 
d="M554 0h-347c-113 0 -173 62 -173 173v347c0 111 63 174 173 174h344v-174h-284c-49 0 -60 -11 -61 -61v-252c0 -28 5 -34 61 -34h114v261h173v-434zM444 845c0 -71 -61 -130 -131 -130s-129 59 -129 130c0 70 58 131 129 131s131 -61 131 -131zM357 845
c0 24 -19 44 -44 44c-23 0 -42 -20 -42 -44s19 -43 42 -43c25 0 44 19 44 43z" />
    <glyph glyph-name="Gcommaaccent" unicode="&#x122;" 
d="M554 0h-347c-113 0 -173 62 -173 173v347c0 111 63 174 173 174h344v-174h-284c-49 0 -60 -11 -61 -61v-252c0 -28 5 -34 61 -34h114v261h173v-434zM397 -224h-37c-82 0 -128 39 -128 111v44c0 29 28 55 63 55c36 0 65 -26 65 -55v-4c0 -38 3 -40 19 -40h18v-111z" />
    <glyph glyph-name="gcommaaccent" unicode="&#x123;" 
d="M554 0h-347c-113 0 -173 62 -173 173v347c0 111 63 174 173 174h344v-174h-284c-49 0 -60 -11 -61 -61v-252c0 -28 5 -34 61 -34h114v261h173v-434zM397 -224h-37c-82 0 -128 39 -128 111v44c0 29 28 55 63 55c36 0 65 -26 65 -55v-4c0 -38 3 -40 19 -40h18v-111z" />
    <glyph glyph-name="Hbar" unicode="&#x126;" 
d="M554 260h-347v-260h-173v694h173v-60h174v60h173v-434zM554 0h-173v173h173v-173zM381 434v79h-174v-79h174z" />
    <glyph glyph-name="hbar" unicode="&#x127;" 
d="M554 260h-347v-260h-173v694h173v-60h174v60h173v-434zM554 0h-173v173h173v-173zM381 434v79h-174v-79h174z" />
    <glyph glyph-name="uni012A" unicode="&#x12a;" horiz-adv-x="449" 
d="M398 0h-347v173h87v347h-87v174h347v-174h-86v-347h86v-173zM475 787h-502v141h502v-141z" />
    <glyph glyph-name="imacron" unicode="&#x12b;" horiz-adv-x="449" 
d="M398 0h-347v173h87v347h-87v174h347v-174h-86v-347h86v-173zM475 787h-502v141h502v-141z" />
    <glyph glyph-name="Ibreve" unicode="&#x12c;" horiz-adv-x="392" 
d="M369 0h-347v173h87v347h-87v174h347v-174h-86v-347h86v-173zM237 780h-80c-134 0 -174 38 -174 149v47h143v-35c0 -29 11 -39 43 -39h57c33 0 42 10 42 39v35h143v-47c0 -111 -39 -149 -174 -149z" />
    <glyph glyph-name="ibreve" unicode="&#x12d;" horiz-adv-x="392" 
d="M369 0h-347v173h87v347h-87v174h347v-174h-86v-347h86v-173zM237 780h-80c-134 0 -174 38 -174 149v47h143v-35c0 -29 11 -39 43 -39h57c33 0 42 10 42 39v35h143v-47c0 -111 -39 -149 -174 -149z" />
    <glyph glyph-name="Iogonek" unicode="&#x12e;" horiz-adv-x="392" 
d="M340 -224h-186c-62 0 -89 34 -89 90v26c0 58 42 101 120 108h-163v173h87v347h-87v174h347v-174h-86v-347h86v-173h-72c-48 -16 -61 -30 -61 -42v-7c0 -12 5 -18 16 -18h88v-157z" />
    <glyph glyph-name="iogonek" unicode="&#x12f;" horiz-adv-x="392" 
d="M340 -224h-186c-62 0 -89 34 -89 90v26c0 58 42 101 120 108h-163v173h87v347h-87v174h347v-174h-86v-347h86v-173h-72c-48 -16 -61 -30 -61 -42v-7c0 -12 5 -18 16 -18h88v-157z" />
    <glyph glyph-name="Idotaccent" unicode="&#x130;" horiz-adv-x="392" 
d="M369 0h-347v173h87v347h-87v174h347v-174h-86v-347h86v-173zM326 845c0 -71 -61 -130 -131 -130s-129 59 -129 130c0 70 58 131 129 131s131 -61 131 -131zM239 845c0 24 -19 44 -44 44c-23 0 -42 -20 -42 -44s19 -43 42 -43c25 0 44 19 44 43z" />
    <glyph glyph-name="dotlessi" unicode="&#x131;" horiz-adv-x="392" 
d="M369 0h-347v173h87v347h-87v174h347v-174h-86v-347h86v-173z" />
    <glyph glyph-name="IJ" unicode="&#x132;" horiz-adv-x="893" 
d="M369 0h-347v173h87v347h-87v174h347v-174h-86v-347h86v-173zM686 0h-260v173h200c54 0 60 5 60 34v313h-249v174h422v-521c0 -111 -62 -173 -173 -173z" />
    <glyph glyph-name="ij" unicode="&#x133;" horiz-adv-x="893" 
d="M369 0h-347v173h87v347h-87v174h347v-174h-86v-347h86v-173zM686 0h-260v173h200c54 0 60 5 60 34v313h-249v174h422v-521c0 -111 -62 -173 -173 -173z" />
    <glyph glyph-name="Kcommaaccent" unicode="&#x136;" 
d="M381 390h-347v304h173v-137h112c50 0 62 12 62 61v76h173v-131c0 -109 -64 -173 -173 -173zM554 0h-173v76c0 48 -12 60 -62 60h-112v-136h-173v303h347c109 0 173 -63 173 -173v-130zM397 -224h-37c-82 0 -128 39 -128 111v44c0 29 28 55 63 55c36 0 65 -26 65 -55v-4
c0 -38 3 -40 19 -40h18v-111z" />
    <glyph glyph-name="kcommaaccent" unicode="&#x137;" 
d="M381 390h-347v304h173v-137h112c50 0 62 12 62 61v76h173v-131c0 -109 -64 -173 -173 -173zM554 0h-173v76c0 48 -12 60 -62 60h-112v-136h-173v303h347c109 0 173 -63 173 -173v-130zM397 -224h-37c-82 0 -128 39 -128 111v44c0 29 28 55 63 55c36 0 65 -26 65 -55v-4
c0 -38 3 -40 19 -40h18v-111z" />
    <glyph glyph-name="Lacute" unicode="&#x139;" horiz-adv-x="511" 
d="M478 0h-444v694h173v-521h271v-173zM238 767h-165l113 200h210z" />
    <glyph glyph-name="lacute" unicode="&#x13a;" horiz-adv-x="511" 
d="M478 0h-444v694h173v-521h271v-173zM238 767h-165l113 200h210z" />
    <glyph glyph-name="Lcommaaccent" unicode="&#x13b;" horiz-adv-x="511" 
d="M478 0h-444v694h173v-521h271v-173zM347 -224h-37c-82 0 -128 39 -128 111v44c0 29 28 55 63 55c36 0 65 -26 65 -55v-4c0 -38 3 -40 19 -40h18v-111z" />
    <glyph glyph-name="lcommaaccent" unicode="&#x13c;" horiz-adv-x="511" 
d="M478 0h-444v694h173v-521h271v-173zM347 -224h-37c-82 0 -128 39 -128 111v44c0 29 28 55 63 55c36 0 65 -26 65 -55v-4c0 -38 3 -40 19 -40h18v-111z" />
    <glyph glyph-name="Lcaron" unicode="&#x13d;" horiz-adv-x="511" 
d="M478 0h-444v694h173v-521h271v-173zM439 494h-37c-82 0 -128 39 -128 111v44c0 29 28 55 63 55c36 0 65 -26 65 -55v-4c0 -38 3 -40 19 -40h18v-111z" />
    <glyph glyph-name="lcaron" unicode="&#x13e;" horiz-adv-x="511" 
d="M478 0h-444v694h173v-521h271v-173zM439 494h-37c-82 0 -128 39 -128 111v44c0 29 28 55 63 55c36 0 65 -26 65 -55v-4c0 -38 3 -40 19 -40h18v-111z" />
    <glyph glyph-name="Ldot" unicode="&#x13f;" horiz-adv-x="511" 
d="M478 0h-444v694h173v-521h271v-173zM494 393c0 -71 -61 -130 -131 -130s-129 59 -129 130c0 70 58 131 129 131s131 -61 131 -131zM407 393c0 24 -19 44 -44 44c-23 0 -42 -20 -42 -44s19 -43 42 -43c25 0 44 19 44 43z" />
    <glyph glyph-name="ldot" unicode="&#x140;" horiz-adv-x="511" 
d="M478 0h-444v694h173v-521h271v-173zM494 393c0 -71 -61 -130 -131 -130s-129 59 -129 130c0 70 58 131 129 131s131 -61 131 -131zM407 393c0 24 -19 44 -44 44c-23 0 -42 -20 -42 -44s19 -43 42 -43c25 0 44 19 44 43z" />
    <glyph glyph-name="Lslash" unicode="&#x141;" horiz-adv-x="530" 
d="M509 0h-444v371l-65 -12v141l65 12v182h174v-150l198 37v-141l-198 -37v-230h270v-173z" />
    <glyph glyph-name="lslash" unicode="&#x142;" horiz-adv-x="530" 
d="M509 0h-444v371l-65 -12v141l65 12v182h174v-150l198 37v-141l-198 -37v-230h270v-173z" />
    <glyph glyph-name="Nacute" unicode="&#x143;" horiz-adv-x="593" 
d="M559 0h-173v468c0 40 -10 52 -45 52h-134v-520h-173v694h352c110 0 173 -63 173 -174v-520zM341 767h-165l113 200h210z" />
    <glyph glyph-name="nacute" unicode="&#x144;" horiz-adv-x="593" 
d="M559 0h-173v468c0 40 -10 52 -45 52h-134v-520h-173v694h352c110 0 173 -63 173 -174v-520zM341 767h-165l113 200h210z" />
    <glyph glyph-name="Ncommaaccent" unicode="&#x145;" horiz-adv-x="593" 
d="M559 0h-173v468c0 40 -10 52 -45 52h-134v-520h-173v694h352c110 0 173 -63 173 -174v-520zM399 -224h-37c-82 0 -128 39 -128 111v44c0 29 28 55 63 55c36 0 65 -26 65 -55v-4c0 -38 3 -40 19 -40h18v-111z" />
    <glyph glyph-name="ncommaaccent" unicode="&#x146;" horiz-adv-x="593" 
d="M559 0h-173v468c0 40 -10 52 -45 52h-134v-520h-173v694h352c110 0 173 -63 173 -174v-520zM399 -224h-37c-82 0 -128 39 -128 111v44c0 29 28 55 63 55c36 0 65 -26 65 -55v-4c0 -38 3 -40 19 -40h18v-111z" />
    <glyph glyph-name="Ncaron" unicode="&#x147;" horiz-adv-x="593" 
d="M559 0h-173v468c0 40 -10 52 -45 52h-134v-520h-173v694h352c110 0 173 -63 173 -174v-520zM545 976l-143 -191c-24 -32 -54 -53 -116 -53s-92 21 -115 53l-142 191h197l63 -92l63 92h193z" />
    <glyph glyph-name="ncaron" unicode="&#x148;" horiz-adv-x="593" 
d="M559 0h-173v468c0 40 -10 52 -45 52h-134v-520h-173v694h352c110 0 173 -63 173 -174v-520zM545 976l-143 -191c-24 -32 -54 -53 -116 -53s-92 21 -115 53l-142 191h197l63 -92l63 92h193z" />
    <glyph glyph-name="Eng" unicode="&#x14a;" horiz-adv-x="593" 
d="M386 -224h-115v173h55c54 0 60 4 60 34v485c0 40 -10 52 -45 52h-134v-520h-173v694h352c110 0 173 -63 173 -174v-571c0 -111 -62 -173 -173 -173z" />
    <glyph glyph-name="eng" unicode="&#x14b;" horiz-adv-x="593" 
d="M386 -224h-115v173h55c54 0 60 4 60 34v485c0 40 -10 52 -45 52h-134v-520h-173v694h352c110 0 173 -63 173 -174v-571c0 -111 -62 -173 -173 -173z" />
    <glyph glyph-name="Omacron" unicode="&#x14c;" horiz-adv-x="724" 
d="M362 -10c-194 0 -347 150 -347 357s153 357 347 357s347 -150 347 -357s-153 -357 -347 -357zM362 163c95 0 176 66 176 184s-81 184 -176 184s-175 -66 -175 -184s80 -184 175 -184zM362 260c-49 0 -84 39 -84 87s35 87 84 87s85 -39 85 -87s-36 -87 -85 -87zM613 787
h-502v141h502v-141z" />
    <glyph glyph-name="omacron" unicode="&#x14d;" horiz-adv-x="724" 
d="M362 -10c-194 0 -347 150 -347 357s153 357 347 357s347 -150 347 -357s-153 -357 -347 -357zM362 163c95 0 176 66 176 184s-81 184 -176 184s-175 -66 -175 -184s80 -184 175 -184zM362 260c-49 0 -84 39 -84 87s35 87 84 87s85 -39 85 -87s-36 -87 -85 -87zM613 787
h-502v141h502v-141z" />
    <glyph glyph-name="Obreve" unicode="&#x14e;" horiz-adv-x="724" 
d="M362 -10c-194 0 -347 150 -347 357s153 357 347 357s347 -150 347 -357s-153 -357 -347 -357zM362 163c95 0 176 66 176 184s-81 184 -176 184s-175 -66 -175 -184s80 -184 175 -184zM362 260c-49 0 -84 39 -84 87s35 87 84 87s85 -39 85 -87s-36 -87 -85 -87zM402 780
h-80c-134 0 -174 38 -174 149v47h143v-35c0 -29 11 -39 43 -39h57c33 0 42 10 42 39v35h143v-47c0 -111 -39 -149 -174 -149z" />
    <glyph glyph-name="obreve" unicode="&#x14f;" horiz-adv-x="724" 
d="M362 -10c-194 0 -347 150 -347 357s153 357 347 357s347 -150 347 -357s-153 -357 -347 -357zM362 163c95 0 176 66 176 184s-81 184 -176 184s-175 -66 -175 -184s80 -184 175 -184zM362 260c-49 0 -84 39 -84 87s35 87 84 87s85 -39 85 -87s-36 -87 -85 -87zM402 780
h-80c-134 0 -174 38 -174 149v47h143v-35c0 -29 11 -39 43 -39h57c33 0 42 10 42 39v35h143v-47c0 -111 -39 -149 -174 -149z" />
    <glyph glyph-name="Ohungarumlaut" unicode="&#x150;" horiz-adv-x="724" 
d="M362 -10c-194 0 -347 150 -347 357s153 357 347 357s347 -150 347 -357s-153 -357 -347 -357zM362 163c95 0 176 66 176 184s-81 184 -176 184s-175 -66 -175 -184s80 -184 175 -184zM362 260c-49 0 -84 39 -84 87s35 87 84 87s85 -39 85 -87s-36 -87 -85 -87zM548 767
h-165l113 200h210zM284 767h-165l113 200h210z" />
    <glyph glyph-name="ohungarumlaut" unicode="&#x151;" horiz-adv-x="724" 
d="M362 -10c-194 0 -347 150 -347 357s153 357 347 357s347 -150 347 -357s-153 -357 -347 -357zM362 163c95 0 176 66 176 184s-81 184 -176 184s-175 -66 -175 -184s80 -184 175 -184zM362 260c-49 0 -84 39 -84 87s35 87 84 87s85 -39 85 -87s-36 -87 -85 -87zM548 767
h-165l113 200h210zM284 767h-165l113 200h210z" />
    <glyph glyph-name="OE" unicode="&#x152;" horiz-adv-x="986" 
d="M952 0h-504c-28 -6 -56 -10 -86 -10c-194 0 -347 150 -347 357s153 357 347 357c30 0 58 -4 86 -10h504v-174h-284c16 -29 27 -61 33 -94h249v-158h-249c-6 -34 -17 -66 -33 -95h284v-173zM362 163c95 0 176 66 176 184s-81 184 -176 184s-175 -66 -175 -184
s80 -184 175 -184zM362 260c-49 0 -84 39 -84 87s35 87 84 87s85 -39 85 -87s-36 -87 -85 -87z" />
    <glyph glyph-name="oe" unicode="&#x153;" horiz-adv-x="986" 
d="M952 0h-504c-28 -6 -56 -10 -86 -10c-194 0 -347 150 -347 357s153 357 347 357c30 0 58 -4 86 -10h504v-174h-284c16 -29 27 -61 33 -94h249v-158h-249c-6 -34 -17 -66 -33 -95h284v-173zM362 163c95 0 176 66 176 184s-81 184 -176 184s-175 -66 -175 -184
s80 -184 175 -184zM362 260c-49 0 -84 39 -84 87s35 87 84 87s85 -39 85 -87s-36 -87 -85 -87z" />
    <glyph glyph-name="Racute" unicode="&#x154;" horiz-adv-x="574" 
d="M554 0h-208l-139 199v-199h-173v444c0 155 118 260 260 260c143 0 260 -109 260 -260c0 -110 -56 -190 -145 -234zM381 444c0 54 -39 87 -87 87c-49 0 -87 -33 -87 -87s38 -87 87 -87c48 0 87 33 87 87zM342 767h-165l113 200h210z" />
    <glyph glyph-name="racute" unicode="&#x155;" horiz-adv-x="574" 
d="M554 0h-208l-139 199v-199h-173v444c0 155 118 260 260 260c143 0 260 -109 260 -260c0 -110 -56 -190 -145 -234zM381 444c0 54 -39 87 -87 87c-49 0 -87 -33 -87 -87s38 -87 87 -87c48 0 87 33 87 87zM342 767h-165l113 200h210z" />
    <glyph glyph-name="Rcommaaccent" unicode="&#x156;" horiz-adv-x="574" 
d="M554 0h-208l-139 199v-199h-173v444c0 155 118 260 260 260c143 0 260 -109 260 -260c0 -110 -56 -190 -145 -234zM381 444c0 54 -39 87 -87 87c-49 0 -87 -33 -87 -87s38 -87 87 -87c48 0 87 33 87 87zM389 -224h-37c-82 0 -128 39 -128 111v44c0 29 28 55 63 55
c36 0 65 -26 65 -55v-4c0 -38 3 -40 19 -40h18v-111z" />
    <glyph glyph-name="rcommaaccent" unicode="&#x157;" horiz-adv-x="574" 
d="M554 0h-208l-139 199v-199h-173v444c0 155 118 260 260 260c143 0 260 -109 260 -260c0 -110 -56 -190 -145 -234zM381 444c0 54 -39 87 -87 87c-49 0 -87 -33 -87 -87s38 -87 87 -87c48 0 87 33 87 87zM389 -224h-37c-82 0 -128 39 -128 111v44c0 29 28 55 63 55
c36 0 65 -26 65 -55v-4c0 -38 3 -40 19 -40h18v-111z" />
    <glyph glyph-name="Rcaron" unicode="&#x158;" horiz-adv-x="574" 
d="M554 0h-208l-139 199v-199h-173v444c0 155 118 260 260 260c143 0 260 -109 260 -260c0 -110 -56 -190 -145 -234zM381 444c0 54 -39 87 -87 87c-49 0 -87 -33 -87 -87s38 -87 87 -87c48 0 87 33 87 87zM546 976l-143 -191c-24 -32 -54 -53 -116 -53s-92 21 -115 53
l-142 191h197l63 -92l63 92h193z" />
    <glyph glyph-name="rcaron" unicode="&#x159;" horiz-adv-x="574" 
d="M554 0h-208l-139 199v-199h-173v444c0 155 118 260 260 260c143 0 260 -109 260 -260c0 -110 -56 -190 -145 -234zM381 444c0 54 -39 87 -87 87c-49 0 -87 -33 -87 -87s38 -87 87 -87c48 0 87 33 87 87zM546 976l-143 -191c-24 -32 -54 -53 -116 -53s-92 21 -115 53
l-142 191h197l63 -92l63 92h193z" />
    <glyph glyph-name="Sacute" unicode="&#x15a;" horiz-adv-x="567" 
d="M544 520h-303c-28 0 -42 -13 -42 -40c0 -25 17 -46 42 -46h17v-174h-61c-109 0 -174 63 -174 174v86c0 112 63 174 174 174h347v-174zM370 0h-347v173h305c27 0 41 14 41 41c0 25 -17 46 -41 46h-18v174h60c111 0 174 -64 174 -174v-87c0 -111 -62 -173 -174 -173z
M368 767h-165l113 200h210z" />
    <glyph glyph-name="sacute" unicode="&#x15b;" horiz-adv-x="567" 
d="M544 520h-303c-28 0 -42 -13 -42 -40c0 -25 17 -46 42 -46h17v-174h-61c-109 0 -174 63 -174 174v86c0 112 63 174 174 174h347v-174zM370 0h-347v173h305c27 0 41 14 41 41c0 25 -17 46 -41 46h-18v174h60c111 0 174 -64 174 -174v-87c0 -111 -62 -173 -174 -173z
M368 767h-165l113 200h210z" />
    <glyph glyph-name="Scedilla" unicode="&#x15e;" horiz-adv-x="567" 
d="M544 520h-303c-28 0 -42 -13 -42 -40c0 -25 17 -46 42 -46h17v-174h-61c-109 0 -174 63 -174 174v86c0 112 63 174 174 174h347v-174zM370 0h-347v173h305c27 0 41 14 41 41c0 25 -17 46 -41 46h-18v174h60c111 0 174 -64 174 -174v-87c0 -111 -62 -173 -174 -173z
M373 -224h-37c-82 0 -128 39 -128 111v44c0 29 28 55 63 55c36 0 65 -26 65 -55v-4c0 -38 3 -40 19 -40h18v-111z" />
    <glyph glyph-name="scedilla" unicode="&#x15f;" horiz-adv-x="567" 
d="M544 520h-303c-28 0 -42 -13 -42 -40c0 -25 17 -46 42 -46h17v-174h-61c-109 0 -174 63 -174 174v86c0 112 63 174 174 174h347v-174zM370 0h-347v173h305c27 0 41 14 41 41c0 25 -17 46 -41 46h-18v174h60c111 0 174 -64 174 -174v-87c0 -111 -62 -173 -174 -173z
M373 -224h-37c-82 0 -128 39 -128 111v44c0 29 28 55 63 55c36 0 65 -26 65 -55v-4c0 -38 3 -40 19 -40h18v-111z" />
    <glyph glyph-name="Scaron" unicode="&#x160;" horiz-adv-x="567" 
d="M544 520h-303c-28 0 -42 -13 -42 -40c0 -25 17 -46 42 -46h17v-174h-61c-109 0 -174 63 -174 174v86c0 112 63 174 174 174h347v-174zM370 0h-347v173h305c27 0 41 14 41 41c0 25 -17 46 -41 46h-18v174h60c111 0 174 -64 174 -174v-87c0 -111 -62 -173 -174 -173z
M552 976l-143 -191c-24 -32 -54 -53 -116 -53s-92 21 -115 53l-142 191h197l63 -92l63 92h193z" />
    <glyph glyph-name="scaron" unicode="&#x161;" horiz-adv-x="567" 
d="M544 520h-303c-28 0 -42 -13 -42 -40c0 -25 17 -46 42 -46h17v-174h-61c-109 0 -174 63 -174 174v86c0 112 63 174 174 174h347v-174zM370 0h-347v173h305c27 0 41 14 41 41c0 25 -17 46 -41 46h-18v174h60c111 0 174 -64 174 -174v-87c0 -111 -62 -173 -174 -173z
M552 976l-143 -191c-24 -32 -54 -53 -116 -53s-92 21 -115 53l-142 191h197l63 -92l63 92h193z" />
    <glyph glyph-name="Tcedilla" unicode="&#x162;" horiz-adv-x="618" 
d="M396 0h-174v520h-188v174h551v-174h-189v-520zM411 -224h-37c-82 0 -128 39 -128 111v44c0 29 28 55 63 55c36 0 65 -26 65 -55v-4c0 -38 3 -40 19 -40h18v-111z" />
    <glyph glyph-name="tcedilla" unicode="&#x163;" horiz-adv-x="618" 
d="M396 0h-174v520h-188v174h551v-174h-189v-520zM411 -224h-37c-82 0 -128 39 -128 111v44c0 29 28 55 63 55c36 0 65 -26 65 -55v-4c0 -38 3 -40 19 -40h18v-111z" />
    <glyph glyph-name="Tcaron" unicode="&#x164;" horiz-adv-x="618" 
d="M396 0h-174v520h-188v174h551v-174h-189v-520zM567 976l-143 -191c-24 -32 -54 -53 -116 -53s-92 21 -115 53l-142 191h197l63 -92l63 92h193z" />
    <glyph glyph-name="tcaron" unicode="&#x165;" horiz-adv-x="618" 
d="M396 0h-174v520h-188v174h551v-174h-189v-520zM567 976l-143 -191c-24 -32 -54 -53 -116 -53s-92 21 -115 53l-142 191h197l63 -92l63 92h193z" />
    <glyph glyph-name="Tbar" unicode="&#x166;" horiz-adv-x="618" 
d="M396 0h-174v269h-86v153h86v98h-188v174h551v-174h-189v-98h91v-153h-91v-269z" />
    <glyph glyph-name="tbar" unicode="&#x167;" horiz-adv-x="618" 
d="M396 0h-174v269h-86v153h86v98h-188v174h551v-174h-189v-98h91v-153h-91v-269z" />
    <glyph glyph-name="Utilde" unicode="&#x168;" 
d="M381 0h-174c-109 0 -173 63 -173 173v521h173v-460c0 -49 11 -61 61 -61h52c49 0 61 12 61 61v460h173v-521c0 -110 -63 -173 -173 -173zM545 787h-502v141h502v-141z" />
    <glyph glyph-name="utilde" unicode="&#x169;" 
d="M381 0h-174c-109 0 -173 63 -173 173v521h173v-460c0 -49 11 -61 61 -61h52c49 0 61 12 61 61v460h173v-521c0 -110 -63 -173 -173 -173zM545 787h-502v141h502v-141z" />
    <glyph glyph-name="Umacron" unicode="&#x16a;" 
d="M381 0h-174c-109 0 -173 63 -173 173v521h173v-460c0 -49 11 -61 61 -61h52c49 0 61 12 61 61v460h173v-521c0 -110 -63 -173 -173 -173zM545 787h-502v141h502v-141z" />
    <glyph glyph-name="umacron" unicode="&#x16b;" 
d="M381 0h-174c-109 0 -173 63 -173 173v521h173v-460c0 -49 11 -61 61 -61h52c49 0 61 12 61 61v460h173v-521c0 -110 -63 -173 -173 -173zM545 787h-502v141h502v-141z" />
    <glyph glyph-name="Ubreve" unicode="&#x16c;" 
d="M381 0h-174c-109 0 -173 63 -173 173v521h173v-460c0 -49 11 -61 61 -61h52c49 0 61 12 61 61v460h173v-521c0 -110 -63 -173 -173 -173zM334 780h-80c-134 0 -174 38 -174 149v47h143v-35c0 -29 11 -39 43 -39h57c33 0 42 10 42 39v35h143v-47
c0 -111 -39 -149 -174 -149z" />
    <glyph glyph-name="ubreve" unicode="&#x16d;" 
d="M381 0h-174c-109 0 -173 63 -173 173v521h173v-460c0 -49 11 -61 61 -61h52c49 0 61 12 61 61v460h173v-521c0 -110 -63 -173 -173 -173zM334 780h-80c-134 0 -174 38 -174 149v47h143v-35c0 -29 11 -39 43 -39h57c33 0 42 10 42 39v35h143v-47
c0 -111 -39 -149 -174 -149z" />
    <glyph glyph-name="Uring" unicode="&#x16e;" 
d="M381 0h-174c-109 0 -173 63 -173 173v521h173v-460c0 -49 11 -61 61 -61h52c49 0 61 12 61 61v460h173v-521c0 -110 -63 -173 -173 -173zM342 726h-95c-89 0 -116 25 -116 98v53c0 72 27 99 116 99h95c90 0 116 -27 116 -99v-53c0 -73 -26 -98 -116 -98zM362 833v35
c0 20 -7 26 -27 26h-82c-20 0 -27 -6 -27 -26v-35c0 -19 7 -27 27 -27h82c20 0 27 8 27 27z" />
    <glyph glyph-name="uring" unicode="&#x16f;" 
d="M381 0h-174c-109 0 -173 63 -173 173v521h173v-460c0 -49 11 -61 61 -61h52c49 0 61 12 61 61v460h173v-521c0 -110 -63 -173 -173 -173zM342 726h-95c-89 0 -116 25 -116 98v53c0 72 27 99 116 99h95c90 0 116 -27 116 -99v-53c0 -73 -26 -98 -116 -98zM362 833v35
c0 20 -7 26 -27 26h-82c-20 0 -27 -6 -27 -26v-35c0 -19 7 -27 27 -27h82c20 0 27 8 27 27z" />
    <glyph glyph-name="Uhungarumlaut" unicode="&#x170;" 
d="M381 0h-174c-109 0 -173 63 -173 173v521h173v-460c0 -49 11 -61 61 -61h52c49 0 61 12 61 61v460h173v-521c0 -110 -63 -173 -173 -173zM480 767h-165l113 200h210zM216 767h-165l113 200h210z" />
    <glyph glyph-name="uhungarumlaut" unicode="&#x171;" 
d="M381 0h-174c-109 0 -173 63 -173 173v521h173v-460c0 -49 11 -61 61 -61h52c49 0 61 12 61 61v460h173v-521c0 -110 -63 -173 -173 -173zM480 767h-165l113 200h210zM216 767h-165l113 200h210z" />
    <glyph glyph-name="Uogonek" unicode="&#x172;" 
d="M431 -224h-186c-62 0 -89 34 -89 90v26c0 58 42 101 120 108h-69c-109 0 -173 63 -173 173v521h173v-460c0 -49 11 -61 61 -61h52c49 0 61 12 61 61v460h173v-521c0 -108 -61 -171 -166 -173c-48 -16 -61 -30 -61 -42v-7c0 -12 5 -18 16 -18h88v-157z" />
    <glyph glyph-name="uogonek" unicode="&#x173;" 
d="M431 -224h-186c-62 0 -89 34 -89 90v26c0 58 42 101 120 108h-69c-109 0 -173 63 -173 173v521h173v-460c0 -49 11 -61 61 -61h52c49 0 61 12 61 61v460h173v-521c0 -108 -61 -171 -166 -173c-48 -16 -61 -30 -61 -42v-7c0 -12 5 -18 16 -18h88v-157z" />
    <glyph glyph-name="Wcircumflex" unicode="&#x174;" horiz-adv-x="761" 
d="M554 0h-347c-109 0 -173 63 -173 173v521h173v-464c0 -45 12 -57 53 -57h34v521h173v-521h37c41 0 50 14 50 57v464h174v-521c0 -110 -64 -173 -174 -173zM638 732h-196l-63 91l-64 -91h-193l143 190c23 32 55 54 117 54c61 0 92 -23 116 -54z" />
    <glyph glyph-name="wcircumflex" unicode="&#x175;" horiz-adv-x="761" 
d="M554 0h-347c-109 0 -173 63 -173 173v521h173v-464c0 -45 12 -57 53 -57h34v521h173v-521h37c41 0 50 14 50 57v464h174v-521c0 -110 -64 -173 -174 -173zM638 732h-196l-63 91l-64 -91h-193l143 190c23 32 55 54 117 54c61 0 92 -23 116 -54z" />
    <glyph glyph-name="Ycircumflex" unicode="&#x176;" horiz-adv-x="562" 
d="M367 260h-173c-111 0 -174 62 -174 174v260h174v-200c0 -55 4 -60 34 -60h79c49 0 60 11 60 60v200h174v-260c0 -110 -63 -174 -174 -174zM367 0h-173v173h173v-173zM539 732h-196l-63 91l-64 -91h-193l143 190c23 32 55 54 117 54c61 0 92 -23 116 -54z" />
    <glyph glyph-name="ycircumflex" unicode="&#x177;" horiz-adv-x="562" 
d="M367 260h-173c-111 0 -174 62 -174 174v260h174v-200c0 -55 4 -60 34 -60h79c49 0 60 11 60 60v200h174v-260c0 -110 -63 -174 -174 -174zM367 0h-173v173h173v-173zM539 732h-196l-63 91l-64 -91h-193l143 190c23 32 55 54 117 54c61 0 92 -23 116 -54z" />
    <glyph glyph-name="Ydieresis" unicode="&#x178;" horiz-adv-x="562" 
d="M367 260h-173c-111 0 -174 62 -174 174v260h174v-200c0 -55 4 -60 34 -60h79c49 0 60 11 60 60v200h174v-260c0 -110 -63 -174 -174 -174zM367 0h-173v173h173v-173zM559 845c0 -71 -61 -130 -131 -130s-129 59 -129 130c0 70 58 131 129 131s131 -61 131 -131zM472 845
c0 24 -19 44 -44 44c-23 0 -43 -20 -43 -44s20 -43 43 -43c25 0 44 19 44 43zM263 845c0 -71 -61 -130 -131 -130s-129 59 -129 130c0 70 58 131 129 131s131 -61 131 -131zM176 845c0 24 -19 44 -44 44c-23 0 -42 -20 -42 -44s19 -43 42 -43c25 0 44 19 44 43z" />
    <glyph glyph-name="Zacute" unicode="&#x179;" horiz-adv-x="570" 
d="M545 0h-521v173l295 347h-295v174h521v-174l-295 -347h295v-173zM344 767h-165l113 200h210z" />
    <glyph glyph-name="zacute" unicode="&#x17a;" horiz-adv-x="570" 
d="M545 0h-521v173l295 347h-295v174h521v-174l-295 -347h295v-173zM344 767h-165l113 200h210z" />
    <glyph glyph-name="Zdotaccent" unicode="&#x17b;" horiz-adv-x="570" 
d="M545 0h-521v173l295 347h-295v174h521v-174l-295 -347h295v-173zM419 845c0 -71 -61 -130 -131 -130s-129 59 -129 130c0 70 58 131 129 131s131 -61 131 -131zM332 845c0 24 -19 44 -44 44c-23 0 -42 -20 -42 -44s19 -43 42 -43c25 0 44 19 44 43z" />
    <glyph glyph-name="zdotaccent" unicode="&#x17c;" horiz-adv-x="570" 
d="M545 0h-521v173l295 347h-295v174h521v-174l-295 -347h295v-173zM419 845c0 -71 -61 -130 -131 -130s-129 59 -129 130c0 70 58 131 129 131s131 -61 131 -131zM332 845c0 24 -19 44 -44 44c-23 0 -42 -20 -42 -44s19 -43 42 -43c25 0 44 19 44 43z" />
    <glyph glyph-name="Zcaron" unicode="&#x17d;" horiz-adv-x="570" 
d="M545 0h-521v173l295 347h-295v174h521v-174l-295 -347h295v-173zM548 976l-143 -191c-24 -32 -54 -53 -116 -53s-92 21 -115 53l-142 191h197l63 -92l63 92h193z" />
    <glyph glyph-name="zcaron" unicode="&#x17e;" horiz-adv-x="570" 
d="M545 0h-521v173l295 347h-295v174h521v-174l-295 -347h295v-173zM548 976l-143 -191c-24 -32 -54 -53 -116 -53s-92 21 -115 53l-142 191h197l63 -92l63 92h193z" />
    <glyph glyph-name="florin" unicode="&#x192;" horiz-adv-x="544" 
d="M517 305h-159l-37 -208c-25 -144 -92 -197 -270 -197h-33v151h27c64 0 93 16 104 76l33 178h-99v145h125l8 47c27 144 93 197 271 197h31v-151h-25c-67 0 -95 -17 -102 -55l-6 -38h132v-145z" />
    <glyph glyph-name="Scommaaccent" unicode="&#x218;" horiz-adv-x="567" 
d="M544 520h-303c-28 0 -42 -13 -42 -40c0 -25 17 -46 42 -46h17v-174h-61c-109 0 -174 63 -174 174v86c0 112 63 174 174 174h347v-174zM370 0h-347v173h305c27 0 41 14 41 41c0 25 -17 46 -41 46h-18v174h60c111 0 174 -64 174 -174v-87c0 -111 -62 -173 -174 -173z
M373 -224h-37c-82 0 -128 39 -128 111v44c0 29 28 55 63 55c36 0 65 -26 65 -55v-4c0 -38 3 -40 19 -40h18v-111z" />
    <glyph glyph-name="scommaaccent" unicode="&#x219;" horiz-adv-x="567" 
d="M544 520h-303c-28 0 -42 -13 -42 -40c0 -25 17 -46 42 -46h17v-174h-61c-109 0 -174 63 -174 174v86c0 112 63 174 174 174h347v-174zM370 0h-347v173h305c27 0 41 14 41 41c0 25 -17 46 -41 46h-18v174h60c111 0 174 -64 174 -174v-87c0 -111 -62 -173 -174 -173z
M373 -224h-37c-82 0 -128 39 -128 111v44c0 29 28 55 63 55c36 0 65 -26 65 -55v-4c0 -38 3 -40 19 -40h18v-111z" />
    <glyph glyph-name="uni021A" unicode="&#x21a;" horiz-adv-x="618" 
d="M396 0h-174v520h-188v174h551v-174h-189v-520zM411 -224h-37c-82 0 -128 39 -128 111v44c0 29 28 55 63 55c36 0 65 -26 65 -55v-4c0 -38 3 -40 19 -40h18v-111z" />
    <glyph glyph-name="uni021B" unicode="&#x21b;" horiz-adv-x="618" 
d="M396 0h-174v520h-188v174h551v-174h-189v-520zM411 -224h-37c-82 0 -128 39 -128 111v44c0 29 28 55 63 55c36 0 65 -26 65 -55v-4c0 -38 3 -40 19 -40h18v-111z" />
    <glyph glyph-name="circumflex" unicode="&#x2c6;" horiz-adv-x="617" 
d="M566 732h-196l-63 91l-64 -91h-193l143 190c23 32 55 54 117 54c61 0 92 -23 116 -54z" />
    <glyph glyph-name="caron" unicode="&#x2c7;" horiz-adv-x="617" 
d="M566 976l-143 -191c-24 -32 -54 -53 -116 -53s-92 21 -115 53l-142 191h197l63 -92l63 92h193z" />
    <glyph glyph-name="breve" unicode="&#x2d8;" horiz-adv-x="528" 
d="M304 780h-80c-134 0 -174 38 -174 149v47h143v-35c0 -29 11 -39 43 -39h57c33 0 42 10 42 39v35h143v-47c0 -111 -39 -149 -174 -149z" />
    <glyph glyph-name="dotaccent" unicode="&#x2d9;" horiz-adv-x="331" 
d="M300 845c0 -71 -61 -130 -131 -130s-129 59 -129 130c0 70 58 131 129 131s131 -61 131 -131zM213 845c0 24 -19 44 -44 44c-23 0 -42 -20 -42 -44s19 -43 42 -43c25 0 44 19 44 43z" />
    <glyph glyph-name="ring" unicode="&#x2da;" horiz-adv-x="427" 
d="M261 726h-95c-89 0 -116 25 -116 98v53c0 72 27 99 116 99h95c90 0 116 -27 116 -99v-53c0 -73 -26 -98 -116 -98zM281 833v35c0 20 -7 26 -27 26h-82c-20 0 -27 -6 -27 -26v-35c0 -19 7 -27 27 -27h82c20 0 27 8 27 27z" />
    <glyph glyph-name="ogonek" unicode="&#x2db;" horiz-adv-x="374" 
d="M324 -224h-185c-62 0 -89 34 -89 90v26c0 58 42 101 119 108h113c-48 -16 -62 -30 -62 -42v-7c0 -12 6 -18 17 -18h87v-157z" />
    <glyph glyph-name="tilde" unicode="&#x2dc;" horiz-adv-x="602" 
d="M552 787h-502v141h502v-141z" />
    <glyph glyph-name="hungarumlaut" unicode="&#x2dd;" horiz-adv-x="688" 
d="M479 767h-165l113 200h210zM215 767h-165l113 200h210z" />
    <glyph glyph-name="Delta" unicode="&#x394;" horiz-adv-x="740" 
d="M726 0h-712l260 695h191zM479 173l-109 290l-109 -290h218z" />
    <glyph glyph-name="Omega" unicode="&#x3a9;" horiz-adv-x="557" 
d="M523 0h-224v192l31 57c7 12 11 30 11 51v169c0 40 -8 57 -47 57h-31c-39 0 -47 -17 -47 -57v-169c0 -21 4 -39 12 -51l30 -57v-192h-224v194h78l-45 65c-27 39 -32 57 -32 119v133c0 117 47 183 195 183h98c148 0 194 -66 194 -183v-133c0 -62 -5 -80 -32 -119l-45 -65
h78v-194z" />
    <glyph glyph-name="mu" unicode="&#x3bc;" horiz-adv-x="464" 
d="M192 -173h-158v650h158v-314h32c36 0 48 15 48 54v260h159v-272c0 -151 -44 -205 -197 -205h-42v-173z" />
    <glyph glyph-name="pi" unicode="&#x3c0;" horiz-adv-x="481" 
d="M447 0h-160v328h-93v-328h-160v498h413v-498z" />
    <glyph glyph-name="Wgrave" unicode="&#x1e80;" horiz-adv-x="761" 
d="M554 0h-347c-109 0 -173 63 -173 173v521h173v-464c0 -45 12 -57 53 -57h34v521h173v-521h37c41 0 50 14 50 57v464h174v-521c0 -110 -64 -173 -174 -173zM490 767h-165l-158 200h211z" />
    <glyph glyph-name="wgrave" unicode="&#x1e81;" horiz-adv-x="761" 
d="M554 0h-347c-109 0 -173 63 -173 173v521h173v-464c0 -45 12 -57 53 -57h34v521h173v-521h37c41 0 50 14 50 57v464h174v-521c0 -110 -64 -173 -174 -173zM490 767h-165l-158 200h211z" />
    <glyph glyph-name="Wacute" unicode="&#x1e82;" horiz-adv-x="761" 
d="M554 0h-347c-109 0 -173 63 -173 173v521h173v-464c0 -45 12 -57 53 -57h34v521h173v-521h37c41 0 50 14 50 57v464h174v-521c0 -110 -64 -173 -174 -173zM434 767h-165l113 200h210z" />
    <glyph glyph-name="wacute" unicode="&#x1e83;" horiz-adv-x="761" 
d="M554 0h-347c-109 0 -173 63 -173 173v521h173v-464c0 -45 12 -57 53 -57h34v521h173v-521h37c41 0 50 14 50 57v464h174v-521c0 -110 -64 -173 -174 -173zM434 767h-165l113 200h210z" />
    <glyph glyph-name="Wdieresis" unicode="&#x1e84;" horiz-adv-x="761" 
d="M554 0h-347c-109 0 -173 63 -173 173v521h173v-464c0 -45 12 -57 53 -57h34v521h173v-521h37c41 0 50 14 50 57v464h174v-521c0 -110 -64 -173 -174 -173zM658 845c0 -71 -61 -130 -131 -130s-129 59 -129 130c0 70 58 131 129 131s131 -61 131 -131zM571 845
c0 24 -19 44 -44 44c-23 0 -43 -20 -43 -44s20 -43 43 -43c25 0 44 19 44 43zM362 845c0 -71 -61 -130 -131 -130s-129 59 -129 130c0 70 58 131 129 131s131 -61 131 -131zM275 845c0 24 -19 44 -44 44c-23 0 -42 -20 -42 -44s19 -43 42 -43c25 0 44 19 44 43z" />
    <glyph glyph-name="wdieresis" unicode="&#x1e85;" horiz-adv-x="761" 
d="M554 0h-347c-109 0 -173 63 -173 173v521h173v-464c0 -45 12 -57 53 -57h34v521h173v-521h37c41 0 50 14 50 57v464h174v-521c0 -110 -64 -173 -174 -173zM658 845c0 -71 -61 -130 -131 -130s-129 59 -129 130c0 70 58 131 129 131s131 -61 131 -131zM571 845
c0 24 -19 44 -44 44c-23 0 -43 -20 -43 -44s20 -43 43 -43c25 0 44 19 44 43zM362 845c0 -71 -61 -130 -131 -130s-129 59 -129 130c0 70 58 131 129 131s131 -61 131 -131zM275 845c0 24 -19 44 -44 44c-23 0 -42 -20 -42 -44s19 -43 42 -43c25 0 44 19 44 43z" />
    <glyph glyph-name="Ygrave" unicode="&#x1ef2;" horiz-adv-x="562" 
d="M367 260h-173c-111 0 -174 62 -174 174v260h174v-200c0 -55 4 -60 34 -60h79c49 0 60 11 60 60v200h174v-260c0 -110 -63 -174 -174 -174zM367 0h-173v173h173v-173zM391 767h-165l-158 200h211z" />
    <glyph glyph-name="ygrave" unicode="&#x1ef3;" horiz-adv-x="562" 
d="M367 260h-173c-111 0 -174 62 -174 174v260h174v-200c0 -55 4 -60 34 -60h79c49 0 60 11 60 60v200h174v-260c0 -110 -63 -174 -174 -174zM367 0h-173v173h173v-173zM391 767h-165l-158 200h211z" />
    <glyph glyph-name="endash" unicode="&#x2013;" horiz-adv-x="671" 
d="M639 249h-607v173h607v-173z" />
    <glyph glyph-name="emdash" unicode="&#x2014;" horiz-adv-x="949" 
d="M916 249h-884v173h884v-173z" />
    <glyph glyph-name="quoteleft" unicode="&#x2018;" horiz-adv-x="287" 
d="M256 439h-52c-111 0 -173 62 -173 173v87c0 48 39 87 87 87s86 -39 86 -87v-27c0 -58 5 -60 26 -60h26v-173z" />
    <glyph glyph-name="quoteright" unicode="&#x2019;" horiz-adv-x="287" 
d="M83 439h-52v173h26c21 0 26 2 26 60v27c0 48 39 87 87 87s86 -39 86 -87v-87c0 -111 -62 -173 -173 -173z" />
    <glyph glyph-name="quotesinglbase" unicode="&#x201a;" horiz-adv-x="296" 
d="M88 -173h-52v173h26c21 0 26 2 26 60v27c0 48 39 86 87 86s86 -38 86 -86v-87c0 -111 -62 -173 -173 -173z" />
    <glyph glyph-name="quotedblleft" unicode="&#x201c;" horiz-adv-x="573" 
d="M256 439h-52c-111 0 -173 62 -173 173v87c0 48 39 87 87 87s86 -39 86 -87v-27c0 -58 5 -60 26 -60h26v-173zM543 439h-52c-111 0 -173 62 -173 173v87c0 48 39 87 87 87s86 -39 86 -87v-27c0 -58 5 -60 26 -60h26v-173z" />
    <glyph glyph-name="quotedblright" unicode="&#x201d;" horiz-adv-x="573" 
d="M83 439h-52v173h26c21 0 26 2 26 60v27c0 48 39 87 87 87s86 -39 86 -87v-87c0 -111 -62 -173 -173 -173zM370 439h-52v173h26c21 0 26 2 26 60v27c0 48 39 87 87 87s86 -39 86 -87v-87c0 -111 -62 -173 -173 -173z" />
    <glyph glyph-name="quotedblbase" unicode="&#x201e;" horiz-adv-x="592" 
d="M88 -173h-52v173h26c21 0 26 2 26 60v27c0 48 39 86 87 86s86 -38 86 -86v-87c0 -111 -62 -173 -173 -173zM384 -173h-52v173h26c21 0 26 2 26 60v27c0 48 39 86 87 86s86 -38 86 -86v-87c0 -111 -62 -173 -173 -173z" />
    <glyph glyph-name="dagger" unicode="&#x2020;" horiz-adv-x="479" 
d="M306 0h-126v429h-156v111h156v154h126v-154h148v-111h-148v-429z" />
    <glyph glyph-name="daggerdbl" unicode="&#x2021;" horiz-adv-x="479" 
d="M306 0h-126v155h-156v111h156v163h-156v111h156v154h126v-154h148v-111h-148v-163h148v-111h-148v-155z" />
    <glyph glyph-name="bullet" unicode="&#x2022;" horiz-adv-x="409" 
d="M248 166h-84c-74 0 -124 42 -124 115v125c0 72 53 117 124 117h84c80 0 121 -39 121 -116v-126c0 -73 -49 -115 -121 -115z" />
    <glyph glyph-name="ellipsis" unicode="&#x2026;" horiz-adv-x="1074" 
d="M302 43c0 -71 -61 -130 -131 -130s-129 59 -129 130c0 70 58 130 129 130s131 -60 131 -130zM215 43c0 24 -19 44 -44 44c-23 0 -43 -20 -43 -44s20 -43 43 -43c25 0 44 19 44 43zM668 43c0 -71 -61 -130 -131 -130s-129 59 -129 130c0 70 58 130 129 130
s131 -60 131 -130zM581 43c0 24 -19 44 -44 44c-23 0 -43 -20 -43 -44s20 -43 43 -43c25 0 44 19 44 43zM1033 43c0 -71 -61 -130 -131 -130s-129 59 -129 130c0 70 58 130 129 130s131 -60 131 -130zM946 43c0 24 -19 44 -44 44c-23 0 -43 -20 -43 -44s20 -43 43 -43
c25 0 44 19 44 43z" />
    <glyph glyph-name="perthousand" unicode="&#x2030;" horiz-adv-x="982" 
d="M280 571v-140c0 -65 -55 -122 -123 -122c-66 0 -122 56 -122 122v140c0 68 57 123 122 123c67 0 123 -56 123 -123zM174 431v140c0 10 -7 17 -17 17c-9 0 -16 -7 -16 -17v-140c0 -10 7 -16 16 -16c10 0 17 6 17 16zM166 0h-132l498 694h131zM662 262v-140
c0 -65 -55 -122 -123 -122c-66 0 -122 56 -122 122v140c0 68 57 123 122 123c67 0 123 -56 123 -123zM556 122v140c0 10 -7 17 -17 17c-9 0 -16 -7 -16 -17v-140c0 -10 7 -16 16 -16c10 0 17 6 17 16zM947 262v-140c0 -65 -55 -122 -123 -122c-66 0 -122 56 -122 122v140
c0 68 57 123 122 123c67 0 123 -56 123 -123zM841 122v140c0 10 -7 17 -17 17c-9 0 -16 -7 -16 -17v-140c0 -10 7 -16 16 -16c10 0 17 6 17 16z" />
    <glyph glyph-name="guilsinglleft" unicode="&#x2039;" horiz-adv-x="295" 
d="M265 69l-195 146c-32 25 -54 56 -54 121c0 62 22 94 54 117l195 144v-200l-93 -65l93 -66v-197z" />
    <glyph glyph-name="guilsinglright" unicode="&#x203a;" horiz-adv-x="295" 
d="M211 215l-195 -146v197l93 66l-93 65v200l195 -144c33 -23 54 -55 54 -117c0 -65 -21 -96 -54 -121z" />
    <glyph glyph-name="fraction" unicode="&#x2044;" horiz-adv-x="336" 
d="M-14 0h-132l498 694h131z" />
    <glyph glyph-name="zerosuperior" unicode="&#x2070;" horiz-adv-x="306" 
d="M274 571v-140c0 -65 -55 -122 -123 -122c-66 0 -122 56 -122 122v140c0 68 57 123 122 123c67 0 123 -56 123 -123zM168 431v140c0 10 -7 17 -17 17c-9 0 -16 -7 -16 -17v-140c0 -10 7 -16 16 -16c10 0 17 6 17 16z" />
    <glyph glyph-name="foursuperior" unicode="&#x2074;" horiz-adv-x="335" 
d="M301 309h-104v385h104v-385zM181 403h-152v291h105v-187h47v-104z" />
    <glyph glyph-name="fivesuperior" unicode="&#x2075;" horiz-adv-x="354" 
d="M316 588h-286v106h286v-106zM221 309h-191v106h169c9 0 15 4 15 15s-7 19 -15 19h-169v105h191c64 0 100 -36 100 -99v-46c0 -64 -35 -100 -100 -100z" />
    <glyph glyph-name="sixsuperior" unicode="&#x2076;" horiz-adv-x="348" 
d="M221 309h-92c-64 0 -99 36 -99 100v285h105v-130c5 2 13 4 24 4h62c65 0 100 -37 100 -100v-59c0 -64 -35 -100 -100 -100zM214 430v20c0 10 -5 15 -14 15h-50c-10 0 -15 -5 -15 -15v-20c0 -11 5 -15 15 -15h50c9 0 14 4 14 15z" />
    <glyph glyph-name="sevensuperior" unicode="&#x2077;" horiz-adv-x="291" 
d="M172 309h-107l82 279h-127v106h246v-65z" />
    <glyph glyph-name="eightsuperior" unicode="&#x2078;" horiz-adv-x="354" 
d="M221 309h-92c-64 0 -99 36 -99 100v46c0 17 7 36 22 45c-12 11 -20 28 -20 48v46c0 64 33 100 97 100h92c65 0 97 -36 97 -100v-46c0 -18 -9 -36 -20 -47c15 -9 23 -29 23 -46v-46c0 -64 -35 -100 -100 -100zM199 454h-47c-10 0 -17 -6 -17 -22c0 -11 6 -17 17 -17h47
c10 0 16 6 16 17c0 16 -7 22 -16 22zM199 588h-47c-10 0 -17 -7 -17 -20c0 -11 6 -19 17 -19h47c10 0 16 8 16 19c0 13 -7 20 -16 20z" />
    <glyph glyph-name="ninesuperior" unicode="&#x2079;" horiz-adv-x="348" 
d="M316 309h-106v131c-5 -2 -12 -4 -24 -4h-63c-63 0 -99 35 -99 99v59c0 64 36 100 99 100h93c65 0 100 -36 100 -100v-285zM210 553v19c0 11 -5 16 -14 16h-50c-10 0 -15 -5 -15 -16v-19c0 -10 5 -15 15 -15h50c9 0 14 5 14 15z" />
    <glyph glyph-name="zeroinferior" unicode="&#x2080;" horiz-adv-x="306" 
d="M274 262v-140c0 -65 -55 -122 -123 -122c-66 0 -122 56 -122 122v140c0 68 57 123 122 123c67 0 123 -56 123 -123zM168 122v140c0 10 -7 17 -17 17c-9 0 -16 -7 -16 -17v-140c0 -10 7 -16 16 -16c10 0 17 6 17 16z" />
    <glyph glyph-name="oneinferior" unicode="&#x2081;" horiz-adv-x="203" 
d="M172 0h-104v262c0 14 -5 17 -17 17h-30v106h53c63 0 98 -36 98 -100v-285z" />
    <glyph glyph-name="twoinferior" unicode="&#x2082;" horiz-adv-x="354" 
d="M221 140h-191v105h169c8 0 15 8 15 18c0 11 -6 16 -15 16h-169v106h191c65 0 100 -36 100 -100v-46c0 -63 -36 -99 -100 -99zM321 0h-291v106h291v-106z" />
    <glyph glyph-name="threeinferior" unicode="&#x2083;" horiz-adv-x="354" 
d="M221 0h-191v106h169c10 0 16 6 16 17c0 16 -7 22 -16 22h-168v95h168c10 0 16 8 16 19c0 13 -7 20 -16 20h-169v106h191c65 0 97 -36 97 -100v-46c0 -18 -9 -36 -20 -47c15 -9 23 -29 23 -46v-46c0 -64 -35 -100 -100 -100z" />
    <glyph glyph-name="fourinferior" unicode="&#x2084;" horiz-adv-x="335" 
d="M301 0h-104v385h104v-385zM181 94h-152v291h105v-187h47v-104z" />
    <glyph glyph-name="fiveinferior" unicode="&#x2085;" horiz-adv-x="354" 
d="M316 279h-286v106h286v-106zM221 0h-191v106h169c9 0 15 4 15 15s-7 19 -15 19h-169v105h191c64 0 100 -36 100 -99v-46c0 -64 -35 -100 -100 -100z" />
    <glyph glyph-name="sixinferior" unicode="&#x2086;" horiz-adv-x="348" 
d="M221 0h-92c-64 0 -99 36 -99 100v285h105v-130c5 2 13 4 24 4h62c65 0 100 -37 100 -100v-59c0 -64 -35 -100 -100 -100zM214 121v20c0 10 -5 15 -14 15h-50c-10 0 -15 -5 -15 -15v-20c0 -11 5 -15 15 -15h50c9 0 14 4 14 15z" />
    <glyph glyph-name="seveninferior" unicode="&#x2087;" horiz-adv-x="291" 
d="M172 0h-107l82 279h-127v106h246v-65z" />
    <glyph glyph-name="eightinferior" unicode="&#x2088;" horiz-adv-x="354" 
d="M221 0h-92c-64 0 -99 36 -99 100v46c0 17 7 36 22 45c-12 11 -20 28 -20 48v46c0 64 33 100 97 100h92c65 0 97 -36 97 -100v-46c0 -18 -9 -36 -20 -47c15 -9 23 -29 23 -46v-46c0 -64 -35 -100 -100 -100zM199 145h-47c-10 0 -17 -6 -17 -22c0 -11 6 -17 17 -17h47
c10 0 16 6 16 17c0 16 -7 22 -16 22zM199 279h-47c-10 0 -17 -7 -17 -20c0 -11 6 -19 17 -19h47c10 0 16 8 16 19c0 13 -7 20 -16 20z" />
    <glyph glyph-name="nineinferior" unicode="&#x2089;" horiz-adv-x="348" 
d="M316 0h-106v131c-5 -2 -12 -4 -24 -4h-63c-63 0 -99 35 -99 99v59c0 64 36 100 99 100h93c65 0 100 -36 100 -100v-285zM210 244v19c0 11 -5 16 -14 16h-50c-10 0 -15 -5 -15 -16v-19c0 -10 5 -15 15 -15h50c9 0 14 5 14 15z" />
    <glyph glyph-name="Euro" unicode="&#x20ac;" horiz-adv-x="548" 
d="M521 0h-314c-111 0 -173 62 -173 173v347c0 111 63 174 173 174h317v-77l-40 -97h-217c-49 0 -60 -11 -60 -61v-8h248l-31 -75h-217v-65h191l-32 -75h-159v-29c0 -29 5 -34 60 -34h254v-173z" />
    <glyph glyph-name="uni2117" unicode="&#x2117;" horiz-adv-x="666" 
d="M357 0h-48c-213 0 -275 63 -275 239v216c0 176 62 239 275 239h48c213 0 276 -63 276 -239v-216c0 -176 -63 -239 -276 -239zM530 239v216c0 106 -32 136 -173 136h-48c-141 0 -172 -30 -172 -136v-216c0 -106 31 -135 172 -135h48c141 0 173 29 173 135zM333 360
c22 0 40 16 40 41c0 26 -18 41 -40 41c-23 0 -40 -15 -40 -41c0 -25 17 -41 40 -41zM293 194h-82v207c0 71 56 121 122 121c65 0 122 -50 122 -121c0 -70 -55 -121 -122 -121c-14 0 -28 2 -40 7v-93z" />
    <glyph glyph-name="trademark" unicode="&#x2122;" horiz-adv-x="842" 
d="M791 281h-111v263c0 33 -2 39 -56 39v-302h-111v302h-16c-32 0 -40 -7 -40 -39v-263h-110v302c0 70 41 111 110 111h223c70 0 111 -41 111 -111v-302zM223 281h-111v302h-85v111h283v-111h-87v-302z" />
    <glyph glyph-name="onethird" unicode="&#x2153;" horiz-adv-x="804" 
d="M214 309h-104v262c0 14 -5 17 -17 17h-30v106h53c63 0 98 -36 98 -100v-285zM166 0h-132l498 694h131zM670 0h-191v106h169c10 0 16 6 16 17c0 16 -7 22 -16 22h-168v95h168c10 0 16 8 16 19c0 13 -7 20 -16 20h-169v106h191c65 0 97 -36 97 -100v-46
c0 -18 -9 -36 -20 -47c15 -9 23 -29 23 -46v-46c0 -64 -35 -100 -100 -100z" />
    <glyph glyph-name="twothirds" unicode="&#x2154;" horiz-adv-x="935" 
d="M225 449h-191v105h169c8 0 15 8 15 18c0 11 -6 16 -15 16h-169v106h191c65 0 100 -36 100 -100v-46c0 -63 -36 -99 -100 -99zM325 309h-291v106h291v-106zM285 0h-132l498 694h131zM801 0h-191v106h169c10 0 16 6 16 17c0 16 -7 22 -16 22h-168v95h168c10 0 16 8 16 19
c0 13 -7 20 -16 20h-169v106h191c65 0 97 -36 97 -100v-46c0 -18 -9 -36 -20 -47c15 -9 23 -29 23 -46v-46c0 -64 -35 -100 -100 -100z" />
    <glyph glyph-name="oneeighth" unicode="&#x215b;" horiz-adv-x="767" 
d="M201 309h-104v262c0 14 -5 17 -17 17h-30v106h53c63 0 98 -36 98 -100v-285zM166 0h-132l498 694h131zM633 0h-92c-64 0 -99 36 -99 100v46c0 17 7 36 22 45c-12 11 -20 28 -20 48v46c0 64 33 100 97 100h92c65 0 97 -36 97 -100v-46c0 -18 -9 -36 -20 -47
c15 -9 23 -29 23 -46v-46c0 -64 -35 -100 -100 -100zM611 145h-47c-10 0 -17 -6 -17 -22c0 -11 6 -17 17 -17h47c10 0 16 6 16 17c0 16 -7 22 -16 22zM611 279h-47c-10 0 -17 -7 -17 -20c0 -11 6 -19 17 -19h47c10 0 16 8 16 19c0 13 -7 20 -16 20z" />
    <glyph glyph-name="threeeighths" unicode="&#x215c;" horiz-adv-x="860" 
d="M225 309h-191v106h169c10 0 16 6 16 17c0 16 -7 22 -16 22h-168v95h168c10 0 16 8 16 19c0 13 -7 20 -16 20h-169v106h191c65 0 97 -36 97 -100v-46c0 -18 -9 -36 -20 -47c15 -9 23 -29 23 -46v-46c0 -64 -35 -100 -100 -100zM248 0h-132l498 694h131zM726 0h-92
c-64 0 -99 36 -99 100v46c0 17 7 36 22 45c-12 11 -20 28 -20 48v46c0 64 33 100 97 100h92c65 0 97 -36 97 -100v-46c0 -18 -9 -36 -20 -47c15 -9 23 -29 23 -46v-46c0 -64 -35 -100 -100 -100zM704 145h-47c-10 0 -17 -6 -17 -22c0 -11 6 -17 17 -17h47c10 0 16 6 16 17
c0 16 -7 22 -16 22zM704 279h-47c-10 0 -17 -7 -17 -20c0 -11 6 -19 17 -19h47c10 0 16 8 16 19c0 13 -7 20 -16 20z" />
    <glyph glyph-name="fiveeighths" unicode="&#x215d;" horiz-adv-x="865" 
d="M320 588h-286v106h286v-106zM225 309h-191v106h169c9 0 15 4 15 15s-7 19 -15 19h-169v105h191c64 0 100 -36 100 -99v-46c0 -64 -35 -100 -100 -100zM250 0h-132l498 694h131zM731 0h-92c-64 0 -99 36 -99 100v46c0 17 7 36 22 45c-12 11 -20 28 -20 48v46
c0 64 33 100 97 100h92c65 0 97 -36 97 -100v-46c0 -18 -9 -36 -20 -47c15 -9 23 -29 23 -46v-46c0 -64 -35 -100 -100 -100zM709 145h-47c-10 0 -17 -6 -17 -22c0 -11 6 -17 17 -17h47c10 0 16 6 16 17c0 16 -7 22 -16 22zM709 279h-47c-10 0 -17 -7 -17 -20
c0 -11 6 -19 17 -19h47c10 0 16 8 16 19c0 13 -7 20 -16 20z" />
    <glyph glyph-name="seveneighths" unicode="&#x215e;" horiz-adv-x="792" 
d="M185 309h-107l82 279h-127v106h246v-65zM183 0h-132l498 694h131zM658 0h-92c-64 0 -99 36 -99 100v46c0 17 7 36 22 45c-12 11 -20 28 -20 48v46c0 64 33 100 97 100h92c65 0 97 -36 97 -100v-46c0 -18 -9 -36 -20 -47c15 -9 23 -29 23 -46v-46
c0 -64 -35 -100 -100 -100zM636 145h-47c-10 0 -17 -6 -17 -22c0 -11 6 -17 17 -17h47c10 0 16 6 16 17c0 16 -7 22 -16 22zM636 279h-47c-10 0 -17 -7 -17 -20c0 -11 6 -19 17 -19h47c10 0 16 8 16 19c0 13 -7 20 -16 20z" />
    <glyph glyph-name="partialdiff" unicode="&#x2202;" horiz-adv-x="524" 
d="M199 559v128c24 6 46 8 63 8c123 0 239 -82 239 -278c0 -218 -62 -417 -264 -417c-144 0 -217 83 -217 245c0 154 83 217 185 217c92 0 146 -31 185 -82c0 127 -52 185 -143 185c-9 0 -25 -2 -48 -6zM355 251c-12 50 -47 81 -112 81c-57 0 -94 -39 -94 -98
c0 -73 37 -104 88 -104c63 0 101 40 118 121z" />
    <glyph glyph-name="product" unicode="&#x220f;" horiz-adv-x="552" 
d="M518 -173h-165v717h-154v-717h-165v867h484v-867z" />
    <glyph glyph-name="summation" unicode="&#x2211;" horiz-adv-x="529" 
d="M503 -174h-479v112l198 320l-198 323v113h479v-161h-271l162 -275l-162 -271h271v-161z" />
    <glyph glyph-name="minus" unicode="&#x2212;" horiz-adv-x="610" 
d="M554 278h-498v144h498v-144z" />
    <glyph glyph-name="radical" unicode="&#x221a;" horiz-adv-x="604" 
d="M398 0h-212l-90 271h-63v127h183l71 -240l143 536h163z" />
    <glyph glyph-name="infinity" unicode="&#x221e;" horiz-adv-x="811" 
d="M405 251c-33 -74 -95 -118 -191 -118c-98 0 -178 71 -178 210c0 142 80 213 178 213c96 0 152 -45 191 -121c40 76 95 121 192 121c96 0 179 -71 179 -213c0 -139 -81 -210 -179 -210c-97 0 -156 44 -192 118zM360 339c-29 63 -67 105 -125 105c-63 0 -97 -40 -97 -101
c0 -67 30 -103 97 -103c64 0 103 45 125 99zM451 339c20 -55 63 -99 126 -99c65 0 96 36 96 103c0 61 -32 101 -96 101c-59 0 -96 -42 -126 -105z" />
    <glyph glyph-name="integral" unicode="&#x222b;" horiz-adv-x="398" 
d="M51 -173h-33v116h34c49 0 74 17 74 80v635c0 140 75 199 222 199h32v-116h-33c-49 0 -74 -18 -74 -81v-634c0 -140 -75 -199 -222 -199z" />
    <glyph glyph-name="approxequal" unicode="&#x2248;" horiz-adv-x="610" 
d="M554 187l-111 -36c-9 -4 -17 -6 -25 -6c-5 0 -11 1 -19 3l-183 55c-4 1 -8 2 -11 2s-7 -1 -12 -3l-137 -46v155l111 37c11 4 19 6 26 6c5 0 11 -2 19 -5l183 -53c4 -1 8 -2 12 -2c3 0 6 1 11 3l136 44v-154zM554 411l-111 -36c-9 -4 -17 -6 -25 -6c-5 0 -11 1 -19 3
l-183 55c-4 1 -8 2 -11 2s-7 -1 -12 -3l-137 -46v155l111 37c11 4 19 6 26 6c5 0 11 -2 19 -5l183 -53c4 -1 8 -2 12 -2c3 0 6 1 11 3l136 44v-154z" />
    <glyph glyph-name="notequal" unicode="&#x2260;" horiz-adv-x="610" 
d="M554 157h-284l-102 -157h-177l102 157h-37v144h130l78 120h-208v144h301l86 131h176l-84 -131h19v-144h-112l-79 -120h191v-144z" />
    <glyph glyph-name="lessequal" unicode="&#x2264;" horiz-adv-x="610" 
d="M554 31l-431 209c-39 19 -67 45 -67 96c0 49 28 74 67 95l431 209v-161l-306 -143l306 -144v-161zM554 -145h-498v145h498v-145z" />
    <glyph glyph-name="greaterequal" unicode="&#x2265;" horiz-adv-x="610" 
d="M487 240l-431 -209v161l306 144l-306 143v161l431 -209c40 -21 67 -46 67 -95c0 -51 -27 -77 -67 -96zM554 -145h-498v145h498v-145z" />
    <glyph glyph-name="lozenge" unicode="&#x25ca;" horiz-adv-x="555" 
d="M204 37l-161 310l161 309c15 30 34 48 74 48c37 0 58 -18 73 -48l161 -309l-161 -310c-15 -29 -36 -48 -73 -48c-40 0 -59 19 -74 48zM278 126l110 221l-110 220l-111 -220z" />
    <glyph glyph-name="a.1" unicode="&#xe04e;" horiz-adv-x="501" 
d="M467 0h-173v173h-87v-173h-173v520c0 111 63 174 173 174h87c110 0 173 -63 173 -174v-520zM294 347v130c0 28 -16 50 -44 50c-29 0 -43 -17 -43 -50v-130h87z" />
    <glyph glyph-name="b.1" unicode="&#xe04f;" horiz-adv-x="573" 
d="M34 250v444h173v-199c28 10 57 15 87 15c143 0 260 -108 260 -260s-120 -260 -260 -260c-142 0 -260 108 -260 260zM381 250c0 54 -39 87 -87 87c-49 0 -87 -33 -87 -87s38 -87 87 -87c48 0 87 33 87 87z" />
    <glyph glyph-name="c.1" unicode="&#xe050;" horiz-adv-x="398" 
d="M381 0h-174c-111 0 -173 62 -173 173v347c0 111 64 174 173 174h174v-174h-113c-50 0 -61 -11 -61 -61v-252c0 -29 5 -34 61 -34h113v-173z" />
    <glyph glyph-name="d.1" unicode="&#xe051;" horiz-adv-x="573" 
d="M366 495v199h174v-444c0 -152 -119 -260 -260 -260c-140 0 -261 108 -261 260s118 260 261 260c29 0 59 -5 86 -15zM280 163c49 0 86 33 86 87s-37 87 -86 87c-48 0 -87 -33 -87 -87s39 -87 87 -87z" />
    <glyph glyph-name="e.1" unicode="&#xe052;" horiz-adv-x="413" 
d="M380 0h-173c-111 0 -173 62 -173 173v87c0 36 19 71 51 86c-27 16 -47 48 -47 88v86c0 111 59 174 169 174h173v-174h-130c-24 0 -42 -18 -42 -50c0 -27 14 -44 42 -44h128v-158h-128c-24 0 -42 -14 -42 -50c0 -27 14 -45 42 -45h130v-173z" />
    <glyph glyph-name="f.1" unicode="&#xe053;" horiz-adv-x="403" 
d="M207 0h-173v520c0 111 64 174 173 174h174v-174h-113c-52 0 -61 -3 -61 -86h174v-174h-174v-260z" />
    <glyph glyph-name="g.1" unicode="&#xe054;" horiz-adv-x="501" 
d="M467 0h-260c-111 0 -173 62 -173 173v347c0 111 63 174 173 174h260v-174h-200c-49 0 -60 -11 -61 -61v-252c0 -28 6 -34 61 -34h27v261h173v-434z" />
    <glyph glyph-name="h.1" unicode="&#xe055;" horiz-adv-x="501" 
d="M207 0h-173v694h173v-260h87v260h173v-434h-260v-260zM467 0h-173v173h173v-173z" />
    <glyph glyph-name="i.1" unicode="&#xe056;" horiz-adv-x="241" 
d="M207 0h-173v694h173v-694z" />
    <glyph glyph-name="j.1" unicode="&#xe057;" horiz-adv-x="414" 
d="M207 0h-173v173h112c45 0 61 21 61 61v460h174v-521c0 -111 -63 -173 -174 -173z" />
    <glyph glyph-name="k.1" unicode="&#xe058;" horiz-adv-x="518" 
d="M311 390h-277v304h173v-131h43c49 0 61 13 61 61v70h174v-131c0 -109 -65 -173 -174 -173zM485 0h-174v69c0 49 -12 61 -61 61h-43v-130h-173v303h277c109 0 174 -63 174 -173v-130z" />
    <glyph glyph-name="l.1" unicode="&#xe059;" horiz-adv-x="414" 
d="M381 0h-174c-111 0 -173 62 -173 173v521h173v-487c0 -29 5 -34 61 -34h113v-173z" />
    <glyph glyph-name="n.1" unicode="&#xe05b;" horiz-adv-x="501" 
d="M467 0h-173v459c0 52 -3 61 -87 61v-520h-173v694h260c110 0 173 -63 173 -174v-520z" />
    <glyph glyph-name="o.1" unicode="&#xe05c;" horiz-adv-x="501" 
d="M467 382h-173v95c0 28 -18 50 -44 50c-29 0 -43 -17 -43 -50v-95h-173v138c0 111 62 174 173 174h87c109 0 173 -63 173 -174v-138zM294 0h-87c-110 0 -173 63 -173 173v130h173v-87c0 -27 16 -49 44 -49c29 0 43 17 43 49v87h173v-130c0 -110 -63 -173 -173 -173z" />
    <glyph glyph-name="q.1" unicode="&#xe05e;" horiz-adv-x="501" 
d="M467 382h-173v95c0 28 -16 50 -44 50c-29 0 -43 -17 -43 -50v-95h-173v138c0 111 63 174 173 174h87c110 0 173 -63 173 -174v-138zM467 -173h-173v173h-87c-109 0 -173 63 -173 173v130h173v-87c0 -27 17 -49 45 -49h42v136h173v-476z" />
    <glyph glyph-name="r.1" unicode="&#xe05f;" horiz-adv-x="393" 
d="M207 0h-173v520c0 111 63 174 173 174h174v-174h-114c-49 0 -60 -11 -60 -61v-459z" />
    <glyph glyph-name="s.1" unicode="&#xe060;" horiz-adv-x="520" 
d="M173 0h-173v173h136c35 0 37 5 37 61v286c0 111 65 174 174 174h173v-174h-112c-50 0 -61 -11 -61 -61v-286c0 -111 -62 -173 -174 -173z" />
    <glyph glyph-name="t.1" unicode="&#xe061;" horiz-adv-x="395" 
d="M381 0h-174c-111 0 -173 62 -173 173v521h173v-141h174v-173h-174l-1 -174c0 -26 5 -33 61 -33h114v-173z" />
    <glyph glyph-name="u.1" unicode="&#xe062;" horiz-adv-x="500" 
d="M293 0h-87c-109 0 -172 63 -172 173v521h172v-478c0 -27 17 -49 45 -49s42 17 42 49v478h173v-521c0 -110 -62 -173 -173 -173z" />
    <glyph glyph-name="v.1" unicode="&#xe063;" horiz-adv-x="492" 
d="M262 0h-34l-199 260v434h173v-374l43 -60l44 60v374h173v-434z" />
    <glyph glyph-name="z.1" unicode="&#xe067;" horiz-adv-x="489" 
d="M463 0h-439v173l232 347h-232v174h439v-174l-225 -347h225v-173z" />
    <glyph glyph-name="CR" horiz-adv-x="250" 
 />
    <glyph glyph-name=".null" horiz-adv-x="0" 
 />
    </font>
</defs>
</svg>
