<?xml version="1.0" encoding="utf-8"?>
<!-- Generator: Adobe Illustrator 27.1.1, SVG Export Plug-In . SVG Version: 6.00 Build 0)  -->
<svg version="1.1" id="Calque_1" xmlns:serif="http://www.serif.com/"
	 xmlns="http://www.w3.org/2000/svg" xmlns:xlink="http://www.w3.org/1999/xlink" x="0px" y="0px" viewBox="0 0 595.3 841.9"
	 style="enable-background:new 0 0 595.3 841.9;" xml:space="preserve">
<style type="text/css">
	.st0{fill-rule:evenodd;clip-rule:evenodd;fill:#F3F8D8;}
	.st1{fill-rule:evenodd;clip-rule:evenodd;fill:#0F2F2B;}
	.st2{fill:#F3F8D8;}
	.st3{fill:#819382;}
	.st4{font-family:'SansationBold';}
	.st5{font-size:71.4331px;}
</style>
<g transform="matrix(1.29246,0,0,1.29246,-20.6918,-32.9959)">
	<circle class="st0" cx="246.3" cy="351.2" r="213"/>
</g>
<g transform="matrix(1.25806,0,0,1.25806,-18.8102,-30.7868)">
	<circle class="st1" cx="251.5" cy="359.1" r="213"/>
</g>
<g id="comments-solid.svg" transform="matrix(3.16748,0,0,3.16748,50,50)">
	<g transform="matrix(1,0,0,1,-10,-8)">
		<g transform="matrix(1,0,0,1,0.000342014,0)">
			<path class="st2" d="M67.3,143c21.4,0,38.7-14.7,38.7-32.7c0-18.1-17.3-32.7-38.7-32.7s-38.7,14.7-38.7,32.7
				c0,7.2,2.7,13.8,7.4,19.2c-0.7,1.8-1.6,3.3-2.6,4.6c-0.9,1.2-1.8,2-2.5,2.7c-0.3,0.3-0.6,0.5-0.8,0.7c-0.1,0.1-0.2,0.1-0.2,0.1
				l0,0c-1,0.8-1.5,2.1-1.1,3.3s1.5,2.1,2.8,2.1c4.1,0,8.1-1,11.6-2.3c1.7-0.6,3.3-1.4,4.7-2.1C53.6,141.3,60.2,143,67.3,143z"/>
		</g>
		<g transform="matrix(1,0,0,1,0.000342014,0)">
			<path class="st3" d="M112,110.2c0,20.9-18.4,36.6-40.3,38.5c4.5,13.8,19.5,24,37.3,24c7.1,0,13.7-1.6,19.5-4.4
				c1.4,0.7,3,1.5,4.7,2.1c3.4,1.3,7.5,2.3,11.6,2.3c1.3,0,2.4-0.8,2.8-2.1c0.4-1.2,0-2.6-1.1-3.3l0,0c0,0-0.1-0.1-0.2-0.1
				c-0.2-0.1-0.5-0.4-0.8-0.7c-0.7-0.6-1.6-1.5-2.5-2.7c-1-1.3-2-2.9-2.6-4.6c4.6-5.4,7.4-12,7.4-19.2c0-17.3-15.8-31.4-35.8-32.7
				C111.9,108.3,112,109.2,112,110.2L112,110.2z"/>
		</g>
	</g>
</g>
<g transform="matrix(1,0,0,1,-23.4033,3.07617)">
	<g transform="matrix(12,0,0,12,114.19,50)">
	</g>
	<text transform="matrix(1 0 0 1 76.501 436.181)" class="st2 st4 st5">Une question ?</text>
</g>
<g transform="matrix(1,0,0,1,-23.4033,3.07617)">
	<g transform="matrix(12,0,0,12,101.982,50)">
	</g>
	<text transform="matrix(1 0 0 1 149.1728 436.181)" class="st2 st4 st5">Une idée ?</text>
</g>
<g transform="matrix(1,0,0,1,-23.4033,3.07617)">
	<g transform="matrix(12,0,0,12,105.22,50)">
	</g>
	<text transform="matrix(1 0 0 1 129.9033 436.181)" class="st2 st4 st5">Une envie ?</text>
</g>
<g transform="matrix(1,0,0,1,-23.4033,3.07617)">
	<g transform="matrix(12,0,0,12,102.838,50)">
	</g>
	<text transform="matrix(1 0 0 1 144.083 436.181)" class="st2 st4 st5">Un projet ?</text>
</g>
<g transform="matrix(1,0,0,1,-23.2598,-8.20312)">
	<text transform="matrix(1 0 0 1 118.9825 380.3197)" class="st2 st4 st5">Cliquez ici et</text>
	<text transform="matrix(1 0 0 1 94.2168 454.0892)" class="st2 st4 st5">on en parle de</text>
	<g transform="matrix(12,0,0,12,100.02,74.7852)">
	</g>
	<text transform="matrix(1 0 0 1 161.5684 527.8588)" class="st2 st4 st5">vives voix</text>
</g>
</svg>
